<svg width="195" height="56" viewBox="0 0 195 56" fill="none" xmlns="http://www.w3.org/2000/svg">
<path d="M103.2 55.85C101.235 55.8576 99.3075 55.3099 97.64 54.27L97.26 54H97.06C96.6639 54.03 96.2661 54.03 95.87 54C90.59 53.74 86.56 49.23 85.08 47.31C83.8339 45.5801 82.7747 43.7231 81.92 41.77L81.86 41.65C80.9243 39.7246 80.171 37.7158 79.61 35.65C78.92 33.05 77.05 24.16 81.82 18.02C82.4554 17.2151 83.1615 16.4688 83.93 15.79C89.68 10.68 99.63 8.72996 106.31 14.31C107.338 15.1926 108.252 16.2004 109.03 17.31C111.508 17.1449 113.985 17.6274 116.22 18.71H116.29C118.464 19.8298 120.363 21.4179 121.85 23.36C123.328 25.3022 124.353 27.5504 124.85 29.94C125.174 31.4979 125.265 33.0953 125.12 34.68C124.67 39.43 122.12 42.93 119.77 45.68C117.111 48.7539 113.991 51.3955 110.52 53.51C108.341 54.9461 105.808 55.7555 103.2 55.85ZM99 47L100.35 48.28C100.57 48.4907 100.812 48.6784 101.07 48.84C103.21 50.18 105.86 48.96 107.25 48.12C110.163 46.3641 112.779 44.1566 115 41.58C117.5 38.68 118.61 36.52 118.83 34.13C118.92 33.1844 118.87 32.2307 118.68 31.3C118.363 29.8462 117.73 28.4799 116.826 27.2979C115.922 26.1159 114.77 25.147 113.45 24.46C111.816 23.6783 109.963 23.4807 108.2 23.9L105.75 24.49L104.6 22.24C104.02 21.0932 103.218 20.0734 102.24 19.24C98.24 15.93 91.88 17.37 88.24 20.61C87.7391 21.0275 87.2803 21.4931 86.87 22C84.52 25 84.77 30.19 85.79 34C86.2482 35.6732 86.8608 37.3001 87.62 38.86L87.69 39.01C88.3588 40.5479 89.1795 42.0152 90.14 43.39C91.66 45.39 94.06 47.5 96.23 47.61H96.64C96.8296 47.5898 97.017 47.553 97.2 47.5L99 47Z" fill="#D41B19"/>
<path d="M29.3801 36H25.6701V33C25.7021 32.7573 25.6783 32.5106 25.6006 32.2785C25.523 32.0464 25.3934 31.8351 25.2218 31.6606C25.0502 31.4861 24.841 31.353 24.6103 31.2714C24.3795 31.1899 24.1332 31.162 23.8901 31.19C23.6458 31.1741 23.4009 31.2065 23.1692 31.2854C22.9376 31.3644 22.7237 31.4883 22.5401 31.65C22.3729 31.8301 22.2455 32.0434 22.1663 32.276C22.087 32.5086 22.0576 32.7553 22.0801 33V43.7C22.053 43.9403 22.0804 44.1836 22.1603 44.4119C22.2402 44.6402 22.3705 44.8475 22.5415 45.0185C22.7125 45.1895 22.9199 45.3198 23.1481 45.3997C23.3764 45.4796 23.6197 45.507 23.8601 45.48H29.3801C30.4096 45.5101 31.4333 45.3156 32.3801 44.91C33.1959 44.5504 33.8833 43.9515 34.3512 43.1926C34.8191 42.4336 35.0454 41.5504 35.0001 40.66C35.0443 40.0126 34.9372 39.3638 34.6872 38.765C34.4373 38.1662 34.0514 37.6338 33.5601 37.21C32.3508 36.3308 30.8719 35.9027 29.3801 36ZM30.9401 42.47C30.3214 42.8849 29.5836 43.0851 28.8401 43.04H25.6701V38.39H28.8401C29.5836 38.3448 30.3214 38.5451 30.9401 38.96C31.1959 39.1655 31.3972 39.4308 31.5262 39.7325C31.6553 40.0342 31.7081 40.363 31.6801 40.69C31.7062 41.0285 31.6529 41.3684 31.5244 41.6826C31.3959 41.9968 31.1958 42.2767 30.9401 42.5V42.47Z" fill="#2A3B4F"/>
<path d="M16 24.9201C15.7474 24.9056 15.4945 24.9415 15.2558 25.0256C15.0172 25.1097 14.7977 25.2404 14.61 25.4101C14.2816 25.8037 14.117 26.3085 14.15 26.8201V33.6101H3.68001V26.8201C3.69718 26.5642 3.66264 26.3074 3.57846 26.0652C3.49427 25.823 3.36216 25.6001 3.19001 25.4101C3.01172 25.2386 2.79947 25.1064 2.56694 25.022C2.33442 24.9376 2.08678 24.9029 1.84001 24.9201C1.58901 24.9064 1.33779 24.9426 1.10091 25.0268C0.864023 25.1109 0.646185 25.2412 0.460011 25.4101C0.131636 25.8037 -0.0330314 26.3085 1.14636e-05 26.8201V43.7601C-0.0330314 44.2716 0.131636 44.7764 0.460011 45.1701C0.644909 45.3409 0.862552 45.4724 1.09976 45.5566C1.33697 45.6408 1.5888 45.676 1.84001 45.6601C2.09153 45.6796 2.34436 45.6461 2.58209 45.5617C2.81983 45.4773 3.03717 45.3439 3.22001 45.1701C3.54839 44.7764 3.71305 44.2716 3.68001 43.7601V36.6901H14.12V43.7601C14.093 44.2709 14.2569 44.7735 14.58 45.1701C14.7664 45.3416 14.9858 45.4735 15.2247 45.5578C15.4636 45.642 15.7172 45.6768 15.97 45.6601C16.2168 45.6779 16.4646 45.6434 16.6973 45.559C16.9299 45.4746 17.1421 45.342 17.32 45.1701C17.6592 44.7809 17.8348 44.2757 17.81 43.7601V26.8201C17.8348 26.3044 17.6592 25.7992 17.32 25.4101C17.1442 25.2439 16.9367 25.1148 16.7099 25.0306C16.4831 24.9464 16.2417 24.9088 16 24.9201Z" fill="#2A3B4F"/>
<path d="M54.72 31.9999C53.6122 31.4501 52.3982 31.1475 51.162 31.1129C49.9258 31.0784 48.6968 31.3128 47.56 31.7999C46.5883 32.237 45.7524 32.9279 45.14 33.7999C44.5071 34.6943 44.0833 35.7196 43.9 36.7999H41.49V32.9999C41.5265 32.5095 41.3685 32.0245 41.05 31.6499C40.8805 31.4853 40.6776 31.3591 40.455 31.2797C40.2324 31.2004 39.9954 31.1697 39.76 31.1899C39.5202 31.1717 39.2792 31.2032 39.0521 31.2824C38.825 31.3615 38.6166 31.4866 38.44 31.6499C38.279 31.8333 38.1569 32.0476 38.0813 32.2797C38.0056 32.5117 37.978 32.7568 38 32.9999V43.8199C37.9823 44.0689 38.0138 44.3189 38.0927 44.5557C38.1717 44.7924 38.2965 45.0114 38.46 45.1999C38.6366 45.3632 38.845 45.4883 39.0721 45.5674C39.2992 45.6466 39.5402 45.678 39.78 45.6599C40.0156 45.6828 40.2534 45.6534 40.4764 45.5739C40.6993 45.4944 40.902 45.3667 41.07 45.1999C41.384 44.811 41.5409 44.3187 41.51 43.8199V39.6199H43.89C44.0353 40.7779 44.4385 41.8885 45.07 42.8699C45.67 43.7776 46.4975 44.512 47.47 44.9999C48.5509 45.4973 49.7304 45.7434 50.92 45.7199C51.9415 45.7406 52.9582 45.5745 53.92 45.2299C54.7838 44.9133 55.5661 44.4079 56.2096 43.7505C56.8532 43.0931 57.3419 42.3002 57.64 41.4299C57.9882 40.4685 58.161 39.4524 58.15 38.4299C58.1867 37.0789 57.8805 35.7406 57.26 34.5399C56.6787 33.464 55.7959 32.5812 54.72 31.9999ZM54 40.9999C53.7499 41.6124 53.3172 42.1329 52.7607 42.4908C52.2043 42.8486 51.5511 43.0264 50.89 42.9999C50.4001 43.0119 49.9136 42.915 49.4657 42.7161C49.0178 42.5172 48.6197 42.2214 48.3 41.8499C47.576 40.851 47.2225 39.6311 47.3 38.3999C47.2746 37.5323 47.4242 36.6684 47.74 35.8599C47.9899 35.2334 48.4308 34.7016 49 34.3399C49.5584 33.9858 50.209 33.8049 50.87 33.8199C51.3714 33.7987 51.8708 33.8943 52.329 34.099C52.7871 34.3038 53.1914 34.6122 53.51 34.9999C54.2444 35.9861 54.5994 37.2036 54.51 38.4299C54.5229 39.3129 54.3491 40.1887 54 40.9999Z" fill="#2A3B4F"/>
<path d="M71.5301 31.3701H60.9201C60.5012 31.3479 60.0887 31.4794 59.7601 31.7401C59.6302 31.8718 59.528 32.0281 59.4593 32.1998C59.3906 32.3715 59.3569 32.5552 59.3601 32.7401C59.3601 33.6801 59.8801 34.1501 60.9201 34.1501H64.4201V43.7801C64.3881 44.2841 64.5571 44.7803 64.8901 45.1601C65.0738 45.3218 65.2876 45.4457 65.5192 45.5246C65.7509 45.6036 65.9958 45.636 66.2401 45.6201C66.48 45.6401 66.7215 45.6095 66.9489 45.5302C67.1763 45.451 67.3845 45.3249 67.5601 45.1601C67.8732 44.7864 68.0308 44.3067 68.0001 43.8201V34.1901H71.5101C71.923 34.2155 72.3313 34.0913 72.6601 33.8401C72.7985 33.7022 72.9058 33.5362 72.9748 33.3534C73.0438 33.1706 73.0728 32.9751 73.0601 32.7801C73.0801 31.8401 72.5701 31.3701 71.5301 31.3701Z" fill="#2A3B4F"/>
<path d="M193.71 33.6399C193.282 32.7878 192.577 32.107 191.71 31.7099C190.637 31.2527 189.476 31.0376 188.31 31.0799C187.558 31.0896 186.808 31.1666 186.07 31.3099C185.201 31.4785 184.353 31.74 183.54 32.0899C183.207 32.1892 182.927 32.4155 182.76 32.7199C182.614 32.9724 182.535 33.2582 182.53 33.5499C182.53 33.836 182.61 34.1163 182.76 34.3599C182.906 34.5857 183.13 34.7496 183.39 34.8199C183.73 34.8993 184.088 34.8456 184.39 34.6699C185.031 34.3718 185.701 34.1406 186.39 33.9799C186.985 33.854 187.592 33.787 188.2 33.7799C188.967 33.705 189.732 33.9349 190.33 34.4199C190.804 35.0003 191.03 35.7439 190.96 36.4899V37.0899H189.96C188.331 37.0579 186.702 37.1919 185.1 37.4899C184.108 37.6446 183.19 38.1103 182.48 38.8199C181.916 39.504 181.631 40.375 181.68 41.2599C181.666 42.0658 181.896 42.857 182.34 43.5299C182.815 44.2201 183.459 44.7777 184.21 45.1499C185.066 45.5418 185.999 45.7366 186.94 45.7199C187.627 45.7296 188.309 45.5932 188.94 45.3199C189.514 45.0715 190.018 44.6871 190.41 44.1999C190.65 43.8958 190.845 43.5591 190.99 43.1999V43.8599C190.956 44.3575 191.11 44.8496 191.42 45.2399C191.587 45.399 191.785 45.522 192.002 45.6011C192.219 45.6803 192.45 45.7139 192.68 45.6999C192.907 45.7154 193.136 45.6824 193.349 45.6031C193.563 45.5238 193.758 45.4 193.92 45.2399C194.23 44.8496 194.384 44.3575 194.35 43.8599V36.9599C194.408 35.8178 194.188 34.6787 193.71 33.6399ZM191 39.7999C191.008 40.42 190.861 41.0322 190.57 41.5799C190.291 42.0885 189.884 42.5158 189.39 42.8199C188.882 43.1101 188.305 43.2586 187.72 43.2499C187.051 43.2924 186.391 43.0738 185.88 42.6399C185.664 42.4451 185.493 42.2055 185.379 41.9378C185.265 41.6701 185.211 41.3808 185.22 41.0899C185.206 40.8787 185.237 40.6669 185.311 40.4686C185.385 40.2703 185.501 40.0901 185.65 39.9399C186.087 39.5938 186.615 39.3819 187.17 39.3299C188.115 39.2032 189.067 39.1464 190.02 39.1599H191.02L191 39.7999Z" fill="#2A3B4F"/>
<path d="M144.25 31.5999C143.872 31.3023 143.406 31.1404 142.925 31.1404C142.444 31.1404 141.978 31.3023 141.6 31.5999C141.433 31.78 141.305 31.9933 141.226 32.2259C141.147 32.4585 141.118 32.7052 141.14 32.9499V36.7999H134.93V32.9999C134.962 32.7563 134.938 32.5086 134.86 32.2757C134.782 32.0427 134.651 31.8308 134.479 31.6561C134.306 31.4814 134.095 31.3485 133.863 31.2677C133.631 31.1869 133.384 31.1603 133.14 31.1899C132.647 31.1611 132.163 31.3262 131.79 31.6499C131.623 31.83 131.495 32.0433 131.416 32.2759C131.337 32.5085 131.308 32.7552 131.33 32.9999V43.8199C131.294 44.0673 131.316 44.3196 131.393 44.5571C131.471 44.7947 131.603 45.011 131.778 45.1892C131.954 45.3674 132.168 45.5026 132.404 45.5843C132.64 45.666 132.892 45.6918 133.14 45.6599C133.382 45.6807 133.625 45.6505 133.854 45.5713C134.083 45.492 134.293 45.3655 134.47 45.1999C134.791 44.814 134.955 44.3213 134.93 43.8199V39.6199H141.14V43.8199C141.122 44.0689 141.154 44.3189 141.233 44.5557C141.312 44.7925 141.436 45.0114 141.6 45.1999C141.978 45.4976 142.444 45.6594 142.925 45.6594C143.406 45.6594 143.872 45.4976 144.25 45.1999C144.42 45.0147 144.551 44.797 144.636 44.5599C144.72 44.3227 144.755 44.0711 144.74 43.8199V32.9999C144.768 32.7448 144.738 32.4866 144.654 32.2444C144.569 32.0021 144.431 31.7819 144.25 31.5999Z" fill="#2A3B4F"/>
<path d="M177.44 40.2C177.141 39.6547 176.785 39.142 176.38 38.67C176.064 38.266 175.674 37.9265 175.23 37.67C175.23 37.67 175.23 37.67 175.17 37.67L178 33.73C178.236 33.4493 178.37 33.0967 178.38 32.73C178.386 32.4041 178.272 32.0874 178.06 31.84C177.857 31.5845 177.579 31.3996 177.264 31.3116C176.95 31.2236 176.616 31.2371 176.31 31.35C175.931 31.463 175.605 31.7077 175.39 32.04L171.79 36.87H169.79V33C169.808 32.754 169.777 32.5069 169.698 32.2733C169.619 32.0396 169.494 31.8243 169.33 31.64C169.155 31.4731 168.947 31.3444 168.72 31.2618C168.493 31.1791 168.251 31.1445 168.01 31.16C167.763 31.1325 167.512 31.1614 167.277 31.2444C167.043 31.3275 166.83 31.4626 166.655 31.6396C166.48 31.8166 166.347 32.0309 166.266 32.2665C166.186 32.5021 166.16 32.7529 166.19 33V43.82C166.165 44.3214 166.329 44.814 166.65 45.2C167.026 45.5253 167.514 45.6904 168.01 45.66C168.25 45.6764 168.49 45.644 168.717 45.565C168.944 45.4859 169.152 45.3618 169.33 45.2C169.494 45.0115 169.618 44.7925 169.697 44.5558C169.776 44.319 169.808 44.069 169.79 43.82V39.62H171.57C171.933 39.6112 172.294 39.6619 172.64 39.77C172.948 39.864 173.225 40.0404 173.44 40.28C173.739 40.5739 173.991 40.911 174.19 41.28L176.12 44.65C176.299 45.0023 176.591 45.2841 176.95 45.45C177.262 45.594 177.609 45.646 177.95 45.6C178.283 45.5429 178.592 45.39 178.84 45.16C179.098 44.9512 179.272 44.6566 179.33 44.33C179.401 43.941 179.319 43.5396 179.1 43.21L177.44 40.2Z" fill="#2A3B4F"/>
<path d="M150.5 45.6601C150.181 45.6729 149.865 45.6041 149.58 45.4601C149.322 45.3197 149.119 45.0983 149 44.8301C148.878 44.4799 148.821 44.1107 148.83 43.7401V32.8601C148.815 32.632 148.845 32.4033 148.919 32.187C148.993 31.9708 149.109 31.7713 149.26 31.6001C149.417 31.4418 149.607 31.3189 149.815 31.2395C150.024 31.1602 150.247 31.1263 150.47 31.1401C150.688 31.1239 150.908 31.1569 151.112 31.2365C151.316 31.3161 151.5 31.4403 151.65 31.6001C151.803 31.77 151.92 31.9693 151.994 32.1859C152.068 32.4025 152.097 32.6319 152.08 32.8601V41.7501H151.33L158.44 32.2901C158.669 32.0009 158.931 31.7392 159.22 31.5101C159.583 31.2417 160.029 31.1106 160.48 31.1401C160.789 31.1234 161.097 31.1926 161.37 31.3401C161.626 31.4736 161.822 31.6985 161.92 31.9701C162.065 32.304 162.133 32.6662 162.12 33.0301V43.9401C162.148 44.4003 161.994 44.8531 161.69 45.2001C161.54 45.3598 161.356 45.4841 161.152 45.5637C160.948 45.6432 160.728 45.6762 160.51 45.6601C160.282 45.6756 160.054 45.6426 159.841 45.5633C159.627 45.484 159.432 45.3602 159.27 45.2001C158.988 44.8423 158.846 44.3946 158.87 43.9401V35.0001H159.65L152.51 44.4901C152.298 44.7812 152.05 45.0434 151.77 45.2701C151.408 45.5495 150.957 45.688 150.5 45.6601Z" fill="#FF9501"/>
<path d="M120.27 6.16007C124.505 4.07028 129.239 3.20115 133.94 3.65007C131.505 7.65395 128.1 10.9797 124.04 13.3201C119.947 15.4161 115.372 16.3892 110.78 16.1401C112.934 11.9813 116.225 8.52019 120.27 6.16007Z" fill="#84B102"/>
<path d="M104.56 8.47C103.66 5.73339 103.543 2.79992 104.22 0C106.435 1.81099 108.156 4.15394 109.22 6.81C110.13 9.46254 110.326 12.3076 109.79 15.06C107.454 13.4072 105.639 11.1206 104.56 8.47Z" fill="#639A00"/>
</svg>
