<svg width="500" height="500" viewBox="0 0 500 500" fill="none" xmlns="http://www.w3.org/2000/svg">
<path d="M58.71 235.67C62.03 229.72 67.65 226.49 73.75 224.11C98.85 214.34 124.02 204.74 149.17 195.11C237.91 161.14 326.66 127.17 415.41 93.2301C417.5 92.4301 419.66 91.6601 421.85 91.3401C433.66 89.5701 441.63 96.6001 442.09 109.08C442.4 117.57 439.83 125.62 438.1 133.77C423.25 203.69 408.3 273.58 393.37 343.48C389.93 359.58 386.46 375.68 382.99 391.77C382.2 395.45 381.02 398.99 379.13 402.27C374.88 409.65 368.32 412.39 360.06 410.23C355.91 409.15 352.13 407.34 348.65 404.79C321.16 384.62 293.6 364.53 266.19 344.26C263.44 342.23 261.99 342.59 259.74 344.77C245.82 358.24 231.75 371.55 217.78 384.97C214.33 388.28 210.36 390.38 205.63 391.1C203.5 391.42 202.47 391.11 202.67 388.48C204.19 368.05 205.56 347.61 206.99 327.18C207.52 319.7 208.18 312.24 208.61 304.76C208.74 302.57 209.61 301.16 211.21 299.73C264.33 252.09 317.4 204.4 370.48 156.72C371.32 155.97 372.16 155.23 372.95 154.42C374.18 153.15 375.55 151.76 374.61 149.85C373.68 147.95 371.7 148.15 369.97 148.26C366.63 148.47 363.77 150.01 361 151.75C295.18 192.94 229.33 234.11 163.57 275.39C160.45 277.35 157.9 277.78 154.32 276.64C126.98 267.96 99.57 259.52 72.18 251.01C66.83 249.35 61.97 246.99 58.77 242.24C58.67 242.09 57.9 240.43 57.89 238.91C57.87 237.31 58.61 235.85 58.71 235.67Z" fill="#AE00D4"/>
</svg>
