<svg width="500" height="500" viewBox="0 0 500 500" fill="none" xmlns="http://www.w3.org/2000/svg">
<path d="M289.52 97.4999C334.61 100.87 372.76 132.69 384.63 176.24C386.9 184.59 388.15 193.41 388.43 202.07C389 219.55 388.87 237.06 388.54 254.56C387.58 304.48 349.18 348.71 299.88 356.75C293.26 357.83 286.47 358.28 279.76 358.37C263.39 358.6 247.01 358.36 230.64 358.55C228.67 358.57 226.24 359.56 224.84 360.94C211.11 374.42 197.54 388.08 183.94 401.7C182.05 403.59 180.23 405.54 177.14 404.36C173.92 403.13 173.74 400.46 173.75 397.57C173.78 382.32 173.72 367.08 173.81 351.83C173.83 349.31 173.16 347.92 170.79 346.61C133.32 325.9 113.56 294.17 112.42 251.28C111.98 234.54 112.14 217.78 112.47 201.04C113.45 152 151.24 107.97 199.63 99.5099C207.1 98.1999 214.75 97.7199 222.34 97.4399C231.7 97.0899 241.08 97.3599 250.46 97.3599C250.45 97.5099 276.48 96.5199 289.52 97.4999ZM164.76 193.81C165.25 207.53 170.34 219.82 177.01 231.5C193.72 260.79 216.64 284.34 244.53 303.08C256.19 310.92 268.6 317.38 282.72 319.61C290.81 320.89 298.83 320.67 305.33 314.72C310.86 309.66 316.26 304.44 321.42 299.02C327.42 292.71 327.17 283.74 321.15 277.49C313.95 270.02 306.79 262.53 299.51 255.14C290.93 246.44 278.9 248.71 273.89 259.89C270.23 268.06 261.97 272.11 253.83 268.68C235.49 260.97 222.28 247.81 215.22 229.11C211.71 219.8 215.44 212.71 224.63 209.05C234.93 204.95 238.06 193.01 230.65 184.86C223.34 176.82 215.76 169.01 208.01 161.4C201.17 154.68 191.8 155.03 184.94 161.82C180.94 165.77 177.13 169.93 172.97 173.7C166.97 179.14 164.44 185.84 164.76 193.81ZM336.49 211.28C336.07 170.33 301.44 137.57 260.71 139.94C256.6 140.18 254.33 142.07 254.35 145.23C254.38 148.16 256.67 149.75 260.8 149.95C265.41 150.18 270.1 150.12 274.6 150.96C309.78 157.55 331.39 189.76 324.39 224.9C323.63 228.7 325 231.22 328.15 231.8C331.17 232.36 333.82 230.45 334.41 226.83C335.25 221.68 335.81 216.47 336.49 211.28ZM265.18 160.21C263.43 160.21 261.68 160.09 259.95 160.23C256.06 160.55 253.75 162.9 254.08 166.06C254.41 169.24 256.98 170.92 260.97 170.59C281.18 168.87 299.42 181.94 303.87 201.77C304.86 206.17 304.48 210.9 304.59 215.48C304.67 218.68 306.14 220.72 309.25 221.34C311.9 221.87 314.43 219.76 314.98 216.66C315.26 215.07 315.35 213.43 315.37 211.82C315.73 183.73 293.29 160.6 265.18 160.21ZM266.86 181.21C262.39 181.08 259.67 182.79 259.77 185.96C259.87 188.98 261.6 190.68 264.7 191.06C277.52 192.62 283.41 198.52 285.04 211.39C285.42 214.4 287.04 216.25 290.11 216.39C292.92 216.52 294.86 214.15 294.93 210.87C295.27 195.7 281.98 181.66 266.86 181.21Z" fill="#AE00D4"/>
</svg>
