<svg width="500" height="500" viewBox="0 0 500 500" fill="none" xmlns="http://www.w3.org/2000/svg">
<path d="M38.5899 144.88C40.9799 141.99 44.1999 140.5 48.0999 140.4C57.9299 140.15 67.7699 140 77.6099 139.9C88.0099 139.8 98.3999 139.81 108.8 139.75C118.06 139.7 124.15 143.79 128.27 152.37C139.04 174.82 150.19 197.09 161.66 219.19C166.45 228.41 172.56 236.92 180.89 243.47C182.82 244.99 184.99 246.37 187.27 247.27C192.38 249.28 196.29 247.58 198.97 242.8C202.97 235.66 203.28 227.7 204.19 219.89C206.3 201.75 206.05 183.71 202.35 165.73C200.14 154.99 193.66 149.2 183.24 147.08C177.92 146 177.58 144.67 181.31 140.6C185.68 135.84 191.04 132.74 197.4 131.79C221.38 128.2 245.42 127.69 269.42 131.46C281.33 133.33 285.74 137.44 286.83 151.4C287.66 162.13 286.76 173 286.63 183.81C286.47 198.22 286.11 212.64 286.28 227.05C286.33 231.38 287.33 235.9 288.87 239.98C291.21 246.18 297.45 250.57 305.33 243.69C316.29 234.13 323.98 222.18 331.68 210.17C343.37 191.93 352.91 172.59 360.98 152.5C361.9 150.2 362.97 147.92 364.24 145.8C366.22 142.49 369.2 140.7 373.16 140.66C398.11 140.39 423.06 139.92 448.01 139.88C461.57 139.86 465.95 146.15 461.54 158.88C456.07 174.65 446.53 188.16 436.85 201.5C426.03 216.41 414.75 230.99 403.76 245.79C401.21 249.23 398.8 252.82 396.74 256.57C392.24 264.74 392.99 271.87 399.3 278.7C404.75 284.6 410.5 290.23 416.3 295.79C431.73 310.56 447.13 325.36 458.33 343.82C459.88 346.38 461.15 349.23 461.93 352.12C464.84 362.85 460.08 369.58 449 370.21C439.6 370.74 430.17 370.86 420.75 371.1C408.7 371.41 396.64 371.86 384.58 371.86C374.22 371.86 364.8 368.13 357.16 361.47C348.74 354.13 341.27 345.68 333.4 337.7C327.67 331.89 322.06 325.95 316.2 320.27C314.46 318.58 312.18 317.31 309.96 316.25C305.56 314.14 301.55 314.66 297.75 318.1C290.19 324.95 288.19 334.06 287.01 343.5C286.48 347.75 286.52 352.08 286.24 356.36C285.69 364.83 281.66 369.63 273.26 370.31C236.67 373.29 202.01 368.91 170.56 347.2C149.52 332.67 132.55 314.79 117.41 294.58C85.3199 251.75 60.6599 204.78 39.1099 156.02C38.8499 155.42 37.4699 152.91 37.3599 150.42C37.2399 147.75 38.3799 145.13 38.5899 144.88Z" fill="#AE00D4"/>
</svg>
