<svg width="500" height="500" viewBox="0 0 500 500" fill="none" xmlns="http://www.w3.org/2000/svg">
<path d="M249.83 122.82C286.4 124.25 322.98 124.41 359.54 126.06C368.16 126.45 376.8 127.6 385.29 129.13C405.92 132.84 419.15 146.82 423.06 168.6C428.42 198.44 429.49 228.61 428.48 258.78C427.77 279.88 425.74 300.95 423.69 321.97C422.19 337.37 415.93 350.47 402.35 359.23C394.06 364.58 384.71 366.12 375.22 367.12C338.51 371 301.65 371.88 264.8 371.7C227.46 371.51 190.12 370.39 152.8 369.19C140.85 368.8 128.89 367.27 117.04 365.53C96.7104 362.55 82.8504 348.59 78.6504 327.62C74.4504 306.68 73.4704 285.42 72.8604 264.17C72.0504 236.2 72.9204 208.27 76.4604 180.48C77.2604 174.24 78.3204 167.99 79.8804 161.91C84.6904 143.25 99.9304 130.69 120.13 128.16C154.93 123.8 189.94 123.43 224.93 122.84C233.21 122.7 241.5 122.82 249.79 122.82C249.81 122.44 249.82 123.19 249.83 122.82ZM215.47 194C215.47 229.75 215.47 264.9 215.47 300.51C246.38 282.7 276.9 265.12 307.93 247.25C276.81 229.33 246.33 211.78 215.47 194Z" fill="#AE00D4"/>
</svg>
