<?xml version="1.0" encoding="utf-8"?>
<!-- Generator: Adobe Illustrator 23.0.5, SVG Export Plug-In . SVG Version: 6.00 Build 0)  -->
<svg version="1.1" id="Слой_1" xmlns="http://www.w3.org/2000/svg" xmlns:xlink="http://www.w3.org/1999/xlink" x="0px" y="0px"
	 viewBox="0 0 500 500" style="enable-background:new 0 0 500 500;" xml:space="preserve">
<style type="text/css">
	.st0{fill:#FAE480;}
	.st1{opacity:0.2;}
	.st2{fill:#7DDF9B;}
	.st3{fill:#3F4D66;}
	.st4{fill:#FF5642;}
	.st5{fill:none;stroke:#363636;stroke-width:3;stroke-linecap:round;stroke-linejoin:round;stroke-miterlimit:10;}
	.st6{fill:#363636;}
	.st7{fill:#FFFEFF;}
</style>
<g>
	<path class="st0" d="M382.47,370.98L382.47,370.98c0-16.85,8.88-31.52,21.96-39.08H116.55v78.16h48.33h239.55
		C391.35,402.49,382.47,387.83,382.47,370.98z"/>
</g>
<g>
	<path class="st0" d="M382.47,292.33L382.47,292.33c0-16.85,8.88-31.52,21.96-39.08H116.55v78.16h48.33h239.55
		C391.35,323.84,382.47,309.18,382.47,292.33z"/>
</g>
<g class="st1">
	<path class="st0" d="M268.39,292.57c0,2.71,2.2,4.91,4.91,4.91h109.47c-0.19-1.69-0.3-3.41-0.3-5.15v0c0-1.58,0.1-3.13,0.25-4.66
		H273.3C270.59,287.67,268.39,289.86,268.39,292.57z"/>
</g>
<g class="st1">
	<path class="st0" d="M268.39,371.49c0,2.71,2.2,4.91,4.91,4.91h109.47c-0.19-1.69-0.3-3.41-0.3-5.15l0,0c0-1.58,0.1-3.13,0.25-4.66
		H273.3C270.59,366.59,268.39,368.78,268.39,371.49z"/>
</g>
<g>
	<path class="st2" d="M240.12,106.52c0,0-10.06,8.81-22.46,8.81c-12.41,0-22.46-8.81-22.46-8.81s10.06-8.81,22.46-8.81
		C230.06,97.72,240.12,106.52,240.12,106.52z"/>
</g>
<g class="st1">
	<path class="st2" d="M240.12,106.52c0,0-10.06,8.81-22.46,8.81c-12.41,0-22.46-8.81-22.46-8.81H240.12z"/>
</g>
<g>
	<path class="st3" d="M79.51,292.33L79.51,292.33c0,21.58,16.58,39.08,37.04,39.08v-78.16C96.09,253.25,79.51,270.74,79.51,292.33z"
		/>
</g>
<g>
	<path class="st4" d="M420.8,338.12H116.55c-24.13,0-43.75-20.54-43.75-45.79c0-25.25,19.63-45.79,43.75-45.79H420.8
		c3.71,0,6.71,3.01,6.71,6.71c0,3.71-3.01,6.71-6.71,6.71H116.55c-16.72,0-30.33,14.52-30.33,32.37c0,17.85,13.6,32.37,30.33,32.37
		H420.8c3.71,0,6.71,3.01,6.71,6.71S424.51,338.12,420.8,338.12z"/>
</g>
<g>
	<path class="st5" d="M322.29,272.65"/>
</g>
<g>
	<path class="st3" d="M79.51,370.98L79.51,370.98c0,21.58,16.58,39.08,37.04,39.08V331.9C96.09,331.9,79.51,349.4,79.51,370.98z"/>
</g>
<g>
	<path class="st4" d="M420.8,416.77H116.55c-24.13,0-43.75-20.54-43.75-45.79c0-25.25,19.63-45.79,43.75-45.79H420.8
		c3.71,0,6.71,3.01,6.71,6.71s-3.01,6.71-6.71,6.71H116.55c-16.72,0-30.33,14.52-30.33,32.37s13.6,32.37,30.33,32.37H420.8
		c3.71,0,6.71,3.01,6.71,6.71S424.51,416.77,420.8,416.77z"/>
</g>
<g>
	<path class="st5" d="M322.29,351.3"/>
</g>
<g>
	<path class="st6" d="M268.21,243.39c-2.78,0-5.04-2.25-5.04-5.04c0-2.78,2.26-5.04,5.04-5.04c18.61,0,33.75-20.09,33.75-44.78
		c0-2.78,2.26-5.04,5.04-5.04c2.78,0,5.04,2.25,5.04,5.04C312.03,218.79,292.38,243.39,268.21,243.39z"/>
</g>
<g>
	<g>
		<path class="st3" d="M241.97,130.38c-2.71,0-4.91-2.2-4.91-4.91V87.91c0-2.71,2.2-4.91,4.91-4.91c2.71,0,4.91,2.2,4.91,4.91v37.57
			C246.88,128.19,244.68,130.38,241.97,130.38z"/>
	</g>
</g>
<g>
	<g>
		<path class="st3" d="M241.97,254.3c-2.71,0-4.91-2.2-4.91-4.91v-6.45c0-2.71,2.2-4.91,4.91-4.91c2.71,0,4.91,2.2,4.91,4.91v6.45
			C246.88,252.1,244.68,254.3,241.97,254.3z"/>
	</g>
</g>
<g>
	<path class="st2" d="M270.17,115.6c-10.35,0-20.01,3.78-28.2,10.3c-8.19-6.53-17.85-10.3-28.2-10.3
		c-29.59,0-53.58,30.81-53.58,68.82c0,38.01,23.99,68.82,53.58,68.82c10.35,0,20.01-3.78,28.2-10.3c8.19,6.53,17.85,10.3,28.2,10.3
		c29.59,0,53.58-30.81,53.58-68.82C323.76,146.41,299.77,115.6,270.17,115.6z"/>
</g>
<g>
	<path class="st7" d="M206.7,145.65c0,5.07-4.11,9.18-9.18,9.18c-5.07,0-9.18-4.11-9.18-9.18c0-5.07,4.11-9.18,9.18-9.18
		C202.59,136.47,206.7,140.58,206.7,145.65z"/>
</g>
<g class="st1">
	<path class="st2" d="M270.17,115.6c-10.35,0-20.01,3.78-28.2,10.3v117.04c8.19,6.53,17.85,10.3,28.2,10.3
		c29.59,0,53.58-30.81,53.58-68.82C323.76,146.41,299.77,115.6,270.17,115.6z"/>
</g>
</svg>
