<?xml version="1.0" encoding="utf-8"?>
<!-- Generator: Adobe Illustrator 23.0.5, SVG Export Plug-In . SVG Version: 6.00 Build 0)  -->
<svg version="1.1" id="Слой_1" xmlns="http://www.w3.org/2000/svg" xmlns:xlink="http://www.w3.org/1999/xlink" x="0px" y="0px"
	 viewBox="0 0 500 500" style="enable-background:new 0 0 500 500;" xml:space="preserve">
<style type="text/css">
	.st0{fill:#3F4D66;}
	.st1{opacity:0.2;}
	.st2{fill:#FAE480;}
	.st3{fill:#FF5642;}
	.st4{fill:#FEFFFF;}
</style>
<g>
	<path class="st0" d="M204.59,173.67l-82.23-82.23c-8.05-8.05-21.1-8.05-29.15,0l0,0c-8.05,8.05-8.05,21.1,0,29.15l82.23,82.23
		L204.59,173.67z"/>
</g>
<g class="st1">
	<path class="st0" d="M122.36,91.44c-8.05-8.05-21.1-8.05-29.15,0l96.81,96.81l14.58-14.58L122.36,91.44z"/>
</g>
<g>
	<path class="st2" d="M387.76,219.35c-32.36-19.78-64.56-40.06-96.55-60.83c-40.81-25.77-88.17-18.08-119.22,12.17
		c-0.42,0.42-0.84,0.83-1.25,1.25c-30.25,31.05-37.94,78.41-12.17,119.22c20.77,31.99,41.04,64.18,60.82,96.53
		C289.7,347.86,347.92,289.66,387.76,219.35z"/>
</g>
<g>
	<path class="st3" d="M387.76,219.35c-39.84,70.31-98.06,128.52-168.38,168.34c7.39,12.09,14.73,24.2,21.98,36.33
		c77.92-41.06,141.65-104.8,182.71-182.71C411.94,234.06,399.84,226.73,387.76,219.35z"/>
</g>
<g>
	<circle class="st4" cx="187.22" cy="249.11" r="16.35"/>
</g>
<g>
	<path class="st3" d="M118.73,147.83c-9.85,6.48-19.69,12.95-29.54,19.43c-14.27,9.38-16.32,29.5-4.25,41.57
		c0.16,0.16,0.32,0.31,0.47,0.47c12.07,12.07,32.19,10.02,41.57-4.25c6.48-9.85,12.95-19.69,19.43-29.54
		c-7.04-0.18-14.02-2.93-19.39-8.3C121.66,161.85,118.91,154.87,118.73,147.83z"/>
</g>
<g>
	<path class="st3" d="M167.31,89.14c-6.48,9.85-12.95,19.69-19.43,29.54c7.04,0.18,14.02,2.93,19.39,8.3
		c5.37,5.37,8.12,12.35,8.3,19.39c9.85-6.48,19.69-12.95,29.54-19.43c14.27-9.38,16.32-29.5,4.25-41.57
		c-0.16-0.16-0.31-0.31-0.47-0.47C196.81,72.82,176.69,74.88,167.31,89.14z"/>
</g>
<g class="st1">
	<g>
		<path class="st3" d="M186.77,115.65l-14.73,14.73c-2.26,2.26-5.91,2.26-8.17,0c-2.26-2.26-2.26-5.91,0-8.17l14.73-14.73
			c2.26-2.26,5.91-2.26,8.17,0C189.03,109.74,189.03,113.4,186.77,115.65z"/>
	</g>
</g>
<g class="st1">
	<g>
		<path class="st3" d="M130.43,171.99l-14.73,14.73c-2.26,2.26-5.91,2.26-8.17,0c-2.26-2.26-2.26-5.91,0-8.17l14.73-14.73
			c2.26-2.26,5.91-2.26,8.17,0C132.69,166.08,132.69,169.73,130.43,171.99z"/>
	</g>
</g>
<g>
	<path class="st3" d="M147.88,118.68c-7.52-0.19-15.11,2.56-20.85,8.3c-5.74,5.74-8.49,13.33-8.3,20.85
		c0.18,7.04,2.93,14.02,8.3,19.39c5.37,5.37,12.35,8.12,19.39,8.3c7.52,0.19,15.11-2.56,20.85-8.3c5.74-5.74,8.49-13.33,8.3-20.85
		c-0.18-7.04-2.93-14.02-8.3-19.39C161.9,121.61,154.92,118.86,147.88,118.68z"/>
</g>
<g class="st1">
	<path class="st3" d="M148.03,118.54c-7.52-0.19-15.11,2.56-20.85,8.3c-5.74,5.74-8.49,13.33-8.3,20.85
		c0.18,7.04,2.93,14.02,8.3,19.39c5.37,5.37,12.35,8.12,19.39,8.3c7.52,0.19,15.11-2.56,20.85-8.3c5.74-5.74,8.49-13.33,8.3-20.85
		c-0.18-7.04-2.93-14.02-8.3-19.39C162.04,121.47,155.06,118.72,148.03,118.54z"/>
</g>
<g class="st1">
	<path class="st2" d="M291.21,158.51c-40.81-25.77-88.17-18.08-119.22,12.17c-0.16,0.16-0.32,0.33-0.49,0.49L315.14,314.8
		c28.27-28.29,52.74-60.37,72.63-95.46C355.4,199.56,323.21,179.28,291.21,158.51z"/>
</g>
<g class="st1">
	<path class="st3" d="M387.76,219.34c-19.89,35.1-44.36,67.18-72.63,95.46l31.53,31.53c30.75-30.77,56.9-66.14,77.4-105.04
		C411.94,234.06,399.84,226.73,387.76,219.34z"/>
</g>
</svg>
