<svg width="353" height="193" viewBox="0 0 353 193" fill="none" xmlns="http://www.w3.org/2000/svg">
<path d="M54.6988 112.186C56.1488 112.186 58.7288 112.186 60.1688 112.186C151.419 112.186 242.669 112.196 333.909 112.156C336.519 112.156 339.219 112.146 341.709 111.486C349.009 109.546 353.149 102.646 352.389 94.2861C351.729 87.0761 346.129 81.3161 338.809 80.4561C336.829 80.2261 334.819 80.2561 332.819 80.2561C241.949 80.2461 151.069 80.2461 60.1988 80.2461C58.7388 80.2461 57.2688 80.2461 54.7688 80.2461C56.2588 78.6461 57.0988 77.6761 58.0088 76.7761C74.1988 60.6161 90.3688 44.4361 106.599 28.3261C110.869 24.0861 113.249 19.2261 112.019 13.1761C110.789 7.10612 107.299 2.71611 101.239 0.85611C95.1488 -1.01389 89.5688 0.146107 84.9588 4.66611C77.4688 12.0261 70.0888 19.4961 62.6688 26.9261C43.8488 45.7561 25.0288 64.5961 6.21878 83.4361C-2.08122 91.7461 -2.07123 100.666 6.23877 108.986C32.1988 134.996 58.2688 160.896 84.0888 187.036C94.7888 197.856 109.059 190.786 111.849 179.856C113.449 173.596 111.149 168.646 106.789 164.306C90.5988 148.146 74.4488 131.946 58.2188 115.826C57.2988 114.886 54.9488 112.866 54.6988 112.186Z" fill="#AE00D4"/>
</svg>
