<svg width="500" height="500" viewBox="0 0 500 500" fill="none" xmlns="http://www.w3.org/2000/svg">
<path d="M452.007 325.446C449.567 329.466 445.967 330.736 441.357 330.586C433.997 330.336 426.617 330.566 419.257 330.486C416.037 330.456 413.407 329.136 412.027 326.066C410.877 323.506 411.047 320.936 412.707 318.616C414.177 316.556 416.227 315.516 418.787 315.516C427.277 315.526 435.777 315.606 444.267 315.466C447.977 315.406 449.947 317.776 452.017 320.186C452.007 321.946 452.007 323.696 452.007 325.446Z" fill="#050505"/>
<path d="M158.167 96.4757C187.787 77.0757 220.327 67.8957 255.667 69.1057C272.727 69.6857 289.448 72.0157 304.658 80.8357C337.788 100.046 355.327 144.006 333.867 184.736C317.497 215.806 293.457 238.336 260.767 251.326C233.617 262.106 216.277 281.356 209.387 309.806C207.527 317.506 207.387 325.366 207.687 333.276C208.577 356.596 190.107 375.066 166.797 374.196C159.057 373.906 152.187 371.036 146.207 366.206C112.747 339.206 91.9975 304.626 85.2275 262.086C78.4675 219.596 87.1475 180.236 110.537 144.106C112.007 141.836 120.617 130.416 130.867 120.126C142.347 108.606 155.617 98.1457 158.167 96.4757Z" fill="#FECA7B"/>
<path d="M155.817 430.446C161.107 417.276 166.447 404.136 171.627 390.926C172.377 389.006 173.747 389.166 175.167 388.926C195.857 385.556 210.677 374.546 218.957 355.136C222.097 347.776 223.087 340.026 222.687 332.056C221.577 310.106 228.917 291.666 245.637 277.176C251.737 271.886 258.867 268.386 266.307 265.336C306.867 248.686 335.737 220.216 352.477 179.606C353.707 176.626 354.577 173.506 355.787 169.946C357.857 178.036 358.437 185.826 358.877 193.616C359.127 197.976 359.257 202.376 358.937 206.726C358.587 211.506 360.137 215.376 362.757 219.246C371.497 232.166 379.957 245.276 388.647 258.216C390.067 260.336 390.067 261.346 387.817 262.816C380.727 267.466 373.857 272.476 366.777 277.146C363.627 279.226 362.247 281.936 362.277 285.606C362.327 291.606 362.207 297.606 362.337 303.596C362.377 305.646 361.727 306.676 359.807 307.496C353.167 310.346 346.647 313.466 340.027 316.366C336.557 317.886 334.027 319.956 334.127 324.106C334.227 328.236 336.767 330.236 340.367 331.546C346.807 333.886 353.137 336.506 359.597 338.786C361.767 339.546 362.417 340.656 362.337 342.846C362.167 347.466 362.417 352.096 362.207 356.716C361.737 366.846 354.107 374.166 343.937 374.196C320.317 374.256 296.707 374.206 273.087 374.226C267.887 374.236 264.717 376.786 264.387 381.046C264.027 385.566 267.037 389.056 271.677 389.176C276.797 389.316 281.927 389.336 287.047 389.166C289.797 389.076 290.497 389.536 289.347 392.376C284.887 403.476 280.657 414.656 276.377 425.826C275.797 427.336 275.407 428.906 274.927 430.456C235.227 430.456 195.517 430.446 155.817 430.446Z" fill="#FDD3BD"/>
<path d="M429.547 275.146C432.937 275.126 435.888 277.306 436.818 280.506C437.768 283.776 436.417 287.726 433.177 289.066C426.187 291.956 419.088 294.606 411.908 296.986C408.298 298.186 404.728 296.096 403.348 292.786C401.948 289.416 402.927 285.166 406.177 283.656C413.377 280.306 420.898 277.726 428.438 275.216C428.778 275.096 429.177 275.166 429.547 275.146Z" fill="#050505"/>
<path d="M410.957 348.626C411.297 348.706 412.287 348.856 413.207 349.196C419.377 351.476 425.557 353.706 431.677 356.116C436.237 357.916 438.127 361.876 436.607 365.906C435.077 369.966 430.997 371.766 426.447 370.126C420.147 367.856 413.867 365.496 407.647 363.006C403.937 361.516 402.167 358.156 402.897 354.696C403.667 351.016 406.617 348.596 410.957 348.626Z" fill="#050505"/>
<path d="M314.447 69.1057C366.067 66.6857 407.207 109.736 402.357 160.346C400.517 179.496 392.817 196.126 379.457 210.046C378.597 210.936 377.787 212.886 376.437 212.146C375.167 211.456 374.177 209.836 374.047 208.106C373.977 207.116 374.007 206.106 374.027 205.106C374.657 176.336 368.447 149.186 355.467 123.466C352.237 117.056 350.517 109.906 346.967 103.556C339.457 90.1057 329.387 79.0557 316.517 70.5657C316.017 70.2357 315.547 69.8857 314.447 69.1057Z" fill="#FCC97B"/>
</svg>
