<?xml version="1.0" encoding="utf-8"?>
<!-- Generator: Adobe Illustrator 23.0.5, SVG Export Plug-In . SVG Version: 6.00 Build 0)  -->
<svg version="1.1" id="Слой_1" xmlns="http://www.w3.org/2000/svg" xmlns:xlink="http://www.w3.org/1999/xlink" x="0px" y="0px"
	 viewBox="0 0 500 500" style="enable-background:new 0 0 500 500;" xml:space="preserve">
<style type="text/css">
	.st0{fill:#40CDE0;}
	.st1{opacity:0.2;}
	.st2{fill:#FF5E4B;}
	.st3{fill:#3F4D66;}
	.st4{fill:#FAE480;}
</style>
<g>
	<path class="st0" d="M411.13,195.92V90l-58.67,60.17c-14.84-14.14-36.72-22.31-59.79-22.31H207c-23.07,0-44.95,8.17-59.79,22.31
		L88.54,90v105.92v36.17V287c0,35.23,18.67,66.96,48.5,89.23c10.76,8.04,23,14.82,36.32,20.11c20.36,8.09,43.29,12.67,67.57,12.67
		h18c24.1,0,46.87-4.52,67.12-12.5c14.07-5.55,26.94-12.75,38.16-21.34c29.01-22.21,47.11-53.49,47.11-88.17v-91.08H411.13z"/>
</g>
<g class="st1">
	<path class="st0" d="M411.13,195.92V90l-58.67,60.17c-14.84-14.14-36.72-22.31-59.79-22.31h-42.55v281.15h8.8
		c24.1,0,46.87-4.52,67.12-12.5c14.07-5.55,26.94-12.75,38.16-21.34c29.01-22.21,47.11-53.49,47.11-88.17v-91.08H411.13z"/>
</g>
<g>
	<g>
		<polygon class="st2" points="249.93,340.39 267.47,312.23 285,284.07 249.93,284.07 214.86,284.07 232.4,312.23 		"/>
	</g>
	<g class="st1">
		<polygon class="st2" points="249.93,340.39 267.47,312.23 285,284.07 249.93,284.07 		"/>
	</g>
</g>
<g>
	<g>
		<path class="st3" d="M411.32,219.03h-31.45c-3,0-5.43-2.43-5.43-5.43c0-3,2.43-5.43,5.43-5.43h31.45c3,0,5.43,2.43,5.43,5.43
			C416.75,216.59,414.32,219.03,411.32,219.03z"/>
	</g>
</g>
<g>
	<g>
		<path class="st3" d="M411.32,254.94h-31.45c-3,0-5.43-2.43-5.43-5.43c0-3,2.43-5.43,5.43-5.43h31.45c3,0,5.43,2.43,5.43,5.43
			C416.75,252.51,414.32,254.94,411.32,254.94z"/>
	</g>
</g>
<g>
	<g>
		<path class="st3" d="M411.32,290.86h-31.45c-3,0-5.43-2.43-5.43-5.43c0-3,2.43-5.43,5.43-5.43h31.45c3,0,5.43,2.43,5.43,5.43
			C416.75,288.42,414.32,290.86,411.32,290.86z"/>
	</g>
</g>
<g>
	<g>
		<path class="st3" d="M119.99,214.44H88.54c-3,0-5.43-2.43-5.43-5.43c0-3,2.43-5.43,5.43-5.43h31.45c3,0,5.43,2.43,5.43,5.43
			C125.43,212.01,122.99,214.44,119.99,214.44z"/>
	</g>
</g>
<g>
	<g>
		<path class="st3" d="M119.99,250.36H88.54c-3,0-5.43-2.43-5.43-5.43c0-3,2.43-5.43,5.43-5.43h31.45c3,0,5.43,2.43,5.43,5.43
			C125.43,247.93,122.99,250.36,119.99,250.36z"/>
	</g>
</g>
<g>
	<g>
		<path class="st3" d="M119.99,286.27H88.54c-3,0-5.43-2.43-5.43-5.43s2.43-5.43,5.43-5.43h31.45c3,0,5.43,2.43,5.43,5.43
			S122.99,286.27,119.99,286.27z"/>
	</g>
</g>
<g>
	<g>
		<g>
			<path class="st4" d="M191.02,167.97c-28.2,0-51.05,22.86-51.05,51.05c0,18.86,10.24,35.33,25.46,44.17
				c7.53,4.37,16.26,6.89,25.59,6.89c16.92,0,31.91-8.24,41.2-20.92c6.19-8.45,9.85-18.86,9.85-30.14
				C242.07,190.83,219.22,167.97,191.02,167.97z"/>
		</g>
	</g>
	<g class="st1">
		<g>
			<path class="st4" d="M191.02,167.97v102.1c16.92,0,31.91-8.24,41.2-20.92c6.19-8.45,9.85-18.86,9.85-30.14
				C242.07,190.83,219.22,167.97,191.02,167.97z"/>
		</g>
	</g>
</g>
<g>
	<g>
		<g>
			<path class="st3" d="M191.02,204.19c-8.2,0-14.84,6.64-14.84,14.84c0,5.48,2.98,10.27,7.4,12.84c2.19,1.27,4.73,2,7.44,2
				c4.92,0,9.28-2.39,11.98-6.08c1.8-2.46,2.86-5.48,2.86-8.76C205.86,210.83,199.22,204.19,191.02,204.19z"/>
		</g>
	</g>
	<g class="st1">
		<g>
			<path class="st3" d="M191.02,204.19v29.68c4.92,0,9.28-2.39,11.98-6.08c1.8-2.46,2.86-5.48,2.86-8.76
				C205.86,210.83,199.22,204.19,191.02,204.19z"/>
		</g>
	</g>
</g>
<g>
	<g>
		<g>
			<path class="st4" d="M308.84,167.97c-28.2,0-51.05,22.86-51.05,51.05c0,18.86,10.24,35.33,25.46,44.17
				c7.53,4.37,16.26,6.89,25.59,6.89c16.92,0,31.91-8.24,41.2-20.92c6.19-8.45,9.85-18.86,9.85-30.14
				C359.89,190.83,337.04,167.97,308.84,167.97z"/>
		</g>
	</g>
	<g class="st1">
		<g>
			<path class="st4" d="M308.84,167.97v102.1c16.92,0,31.91-8.24,41.2-20.92c6.19-8.45,9.85-18.86,9.85-30.14
				C359.89,190.83,337.04,167.97,308.84,167.97z"/>
		</g>
	</g>
</g>
<g>
	<g>
		<g>
			<path class="st3" d="M308.84,204.19c-8.2,0-14.84,6.64-14.84,14.84c0,5.48,2.98,10.27,7.4,12.84c2.19,1.27,4.73,2,7.44,2
				c4.92,0,9.28-2.39,11.98-6.08c1.8-2.46,2.86-5.48,2.86-8.76C323.68,210.83,317.04,204.19,308.84,204.19z"/>
		</g>
	</g>
	<g class="st1">
		<g>
			<path class="st3" d="M308.84,204.19v29.68c4.92,0,9.28-2.39,11.98-6.08c1.8-2.46,2.86-5.48,2.86-8.76
				C323.68,210.83,317.04,204.19,308.84,204.19z"/>
		</g>
	</g>
</g>
</svg>
