<?xml version="1.0" encoding="utf-8"?>
<!-- Generator: Adobe Illustrator 23.0.5, SVG Export Plug-In . SVG Version: 6.00 Build 0)  -->
<svg version="1.1" id="Слой_1" xmlns="http://www.w3.org/2000/svg" xmlns:xlink="http://www.w3.org/1999/xlink" x="0px" y="0px"
	 viewBox="0 0 500 500" style="enable-background:new 0 0 500 500;" xml:space="preserve">
<style type="text/css">
	.st0{fill:#40CDE0;}
	.st1{fill:#FF5642;}
	.st2{opacity:0.2;}
	.st3{fill:#FAE480;}
	.st4{fill:#FEFFFF;}
</style>
<g>
	<g>
		<path class="st0" d="M275.24,127.6h-50.63c-9.36,0-16.97-7.61-16.97-16.97v-5.15c0-16.26,13.23-29.48,29.48-29.48h25.6
			c16.26,0,29.48,13.23,29.48,29.48v5.15C292.21,119.99,284.6,127.6,275.24,127.6z M237.12,87.63c-9.84,0-17.85,8.01-17.85,17.85
			v5.15c0,2.94,2.4,5.34,5.34,5.34h50.63c2.94,0,5.34-2.4,5.34-5.34v-5.15c0-9.84-8.01-17.85-17.85-17.85H237.12z"/>
	</g>
</g>
<g>
	<path class="st1" d="M363.22,423.51h-226.2c-2.74,0-4.97-2.22-4.97-4.97V136.42c0-13.4,10.87-24.27,24.27-24.27h187.6
		c13.4,0,24.27,10.87,24.27,24.27v282.12C368.19,421.28,365.96,423.51,363.22,423.51z"/>
</g>
<g class="st2">
	<path class="st1" d="M286.08,112.15h-35.96v311.35h101.11c9.26,0,16.76-7.51,16.76-16.76V194.07
		C367.99,148.83,331.32,112.15,286.08,112.15z"/>
</g>
<g>
	<path class="st3" d="M153.39,423.31h193.45V198.26c0-34.53-28.09-62.63-62.63-62.63h-68.2c-34.53,0-62.63,28.09-62.63,62.63V423.31
		z"/>
</g>
<g class="st2">
	<path class="st3" d="M346.65,198.26c0-34.53-28.09-62.63-62.63-62.63h-33.91v287.68h96.53V198.26z"/>
</g>
<g>
	<path class="st1" d="M104.3,246.3c-14.73,0-26.68,11.94-26.68,26.68v26.41h54.43V246.3H104.3z"/>
</g>
<g>
	<path class="st0" d="M77.62,363.81c0,14.73,11.94,26.68,26.68,26.68h27.75v-91.09H77.62V363.81z"/>
</g>
<g>
	<path class="st0" d="M368.19,299.39v91.09h27.75c14.73,0,26.68-11.94,26.68-26.68v-64.42H368.19z"/>
</g>
<g>
	<path class="st1" d="M422.62,272.98c0-14.73-11.94-26.68-26.68-26.68h-27.75v53.09h54.43V272.98z"/>
</g>
<g>
	<path class="st1" d="M309.25,326.81c0-9.57-7.76-17.32-17.32-17.32h-83.42c-9.57,0-17.32,7.76-17.32,17.32V349h118.07V326.81z"/>
</g>
<g>
	<rect x="191.18" y="349" class="st0" width="118.07" height="74.19"/>
</g>
<g>
	<path class="st1" d="M309.06,326.81c0-9.57-7.76-17.32-17.32-17.32h-83.42c-9.57,0-17.32,7.76-17.32,17.32V349h118.07V326.81z"/>
</g>
<g>
	<rect x="190.99" y="349" class="st0" width="118.07" height="74.19"/>
</g>
<g>
	<path class="st0" d="M258.79,228.92H240.7c-6.78,0-12.28-5.5-12.28-12.28l0,0c0-6.78,5.5-12.28,12.28-12.28h18.09
		c6.78,0,12.28,5.5,12.28,12.28l0,0C271.07,223.42,265.57,228.92,258.79,228.92z"/>
</g>
<g class="st2">
	<path class="st1" d="M291.73,309.49h-41.88V349h59.2v-22.19C309.06,317.24,301.3,309.49,291.73,309.49z"/>
</g>
<g class="st2">
	<rect x="249.85" y="349" class="st0" width="59.2" height="74.19"/>
</g>
<g>
	<g>
		<path class="st4" d="M270.2,396.18h-39.96c-3.21,0-5.82-2.6-5.82-5.82s2.6-5.82,5.82-5.82h39.96c3.21,0,5.82,2.6,5.82,5.82
			S273.41,396.18,270.2,396.18z"/>
	</g>
</g>
<g>
	<rect x="77.62" y="308.64" class="st1" width="54.43" height="12.12"/>
</g>
<g>
	<rect x="368.19" y="308.64" class="st1" width="54.43" height="12.12"/>
</g>
<g class="st2">
	<rect x="77.62" y="314.7" class="st1" width="54.43" height="6.06"/>
</g>
<g class="st2">
	<rect x="368.19" y="314.7" class="st1" width="54.43" height="6.06"/>
</g>
</svg>
