<svg width="353" height="194" viewBox="0 0 353 194" fill="none" xmlns="http://www.w3.org/2000/svg">
<path d="M297.89 113C296.44 113 293.86 113 292.42 113C201.17 113 109.92 113.01 18.6801 112.97C16.0701 112.97 13.3701 112.96 10.8801 112.3C3.58008 110.36 -0.559923 103.46 0.200077 95.1001C0.860077 87.8901 6.46008 82.1301 13.7801 81.2701C15.7601 81.0401 17.7701 81.0701 19.7701 81.0701C110.64 81.0601 201.52 81.0601 292.39 81.0601C293.85 81.0601 295.32 81.0601 297.82 81.0601C296.33 79.4601 295.49 78.4901 294.58 77.5901C278.39 61.4301 262.22 45.2501 245.99 29.1401C241.72 24.9001 239.34 20.0401 240.57 13.9901C241.8 7.92008 245.29 3.53007 251.35 1.67007C257.44 -0.199925 263.02 0.960072 267.63 5.48007C275.12 12.8401 282.5 20.3101 289.92 27.7401C308.74 46.5701 327.56 65.4101 346.37 84.2501C354.67 92.5601 354.66 101.48 346.35 109.8C320.39 135.81 294.32 161.71 268.5 187.85C257.8 198.67 243.53 191.6 240.74 180.67C239.14 174.41 241.44 169.46 245.8 165.12C261.99 148.96 278.14 132.76 294.37 116.64C295.29 115.7 297.64 113.68 297.89 113Z" fill="#AE00D4"/>
</svg>
