<?xml version="1.0" encoding="utf-8"?>
<!-- Generator: Adobe Illustrator 23.0.5, SVG Export Plug-In . SVG Version: 6.00 Build 0)  -->
<svg version="1.1" id="Слой_1" xmlns="http://www.w3.org/2000/svg" xmlns:xlink="http://www.w3.org/1999/xlink" x="0px" y="0px"
	 viewBox="0 0 500 500" style="enable-background:new 0 0 500 500;" xml:space="preserve">
<style type="text/css">
	.st0{fill:#40CDE0;}
	.st1{opacity:0.2;}
	.st2{fill:#3F4D66;}
	.st3{fill:#FAE480;}
	.st4{fill:#FF5642;}
	.st5{fill:#7DDF9B;}
</style>
<g>
	<path class="st0" d="M219.84,239.72c0-31.97,25.92-57.89,57.89-57.89c6.3,0,12.36,1.04,18.04,2.9
		c-2.19-23.16-21.67-41.28-45.4-41.28h-81.85c-23.9,0-43.48,18.39-45.43,41.79c6.09-2.17,12.61-3.42,19.44-3.42
		c31.97,0,57.89,25.92,57.89,57.89c0,31.97-25.92,57.89-57.89,57.89c-6.9,0-13.5-1.27-19.64-3.49v75.3
		c0,25.2,20.43,45.62,45.62,45.62h81.85c25.2,0,45.62-20.43,45.62-45.62v-74.79c-5.75,1.91-11.87,2.98-18.26,2.98
		C245.76,297.61,219.84,271.69,219.84,239.72z"/>
</g>
<g class="st1">
	<path class="st0" d="M277.74,297.61c-31.97,0-57.89-25.92-57.89-57.89c0-31.97,25.92-57.89,57.89-57.89c6.3,0,12.36,1.04,18.04,2.9
		c-2.19-23.16-21.67-41.28-45.4-41.28h-41.84v271.58h41.84c25.2,0,45.62-20.43,45.62-45.62v-74.79
		C290.25,296.54,284.12,297.61,277.74,297.61z"/>
</g>
<g>
	<g>
		<path class="st2" d="M277.16,110.77c-2.85,0-5.17-2.31-5.17-5.17V81.89c0-2.86,2.32-5.17,5.17-5.17s5.17,2.31,5.17,5.17v23.71
			C282.33,108.46,280.02,110.77,277.16,110.77z"/>
	</g>
</g>
<g>
	<path class="st3" d="M142.53,181.83c-6.83,0-13.36,1.24-19.44,3.42c-22.39,8-38.45,29.33-38.45,54.47
		c0,25.07,15.96,46.35,38.25,54.4c6.14,2.22,12.73,3.49,19.64,3.49c31.97,0,57.89-25.92,57.89-57.89
		C200.42,207.75,174.51,181.83,142.53,181.83z"/>
</g>
<g>
	<path class="st3" d="M295.77,184.73c-5.68-1.86-11.73-2.9-18.04-2.9c-31.97,0-57.89,25.92-57.89,57.89
		c0,31.97,25.92,57.89,57.89,57.89c6.39,0,12.51-1.07,18.26-2.98c23.02-7.65,39.63-29.32,39.63-54.91
		C335.63,214.05,318.91,192.32,295.77,184.73z"/>
</g>
<g>
	<polygon class="st3" points="209.44,323.84 218.74,307.73 228.04,291.63 209.44,291.63 190.85,291.63 200.15,307.73 	"/>
</g>
<g class="st1">
	<polygon class="st3" points="209.44,323.84 218.74,307.73 228.04,291.63 209.44,291.63 	"/>
</g>
<g>
	<g>
		<path class="st2" d="M289.25,88.79H129.64c-3.81,0-6.89-3.09-6.89-6.89s3.09-6.89,6.89-6.89h159.62c3.81,0,6.89,3.09,6.89,6.89
			S293.06,88.79,289.25,88.79z"/>
	</g>
</g>
<g>
	<rect x="169.35" y="88.79" class="st2" width="80.19" height="54.67"/>
</g>
<g class="st1">
	<rect x="169.35" y="88.79" class="st2" width="80.19" height="54.67"/>
</g>
<g>
	<circle class="st3" cx="277.16" cy="114.92" r="15.39"/>
</g>
<g class="st1">
	<path class="st3" d="M289.41,114.92c0,6.76-5.48,12.25-12.25,12.25c-6.76,0-12.25-5.48-12.25-12.25c0-6.76,5.48-12.25,12.25-12.25
		C283.93,102.67,289.41,108.15,289.41,114.92z"/>
</g>
<g class="st1">
	<path class="st3" d="M284.31,114.92c0,3.95-3.2,7.15-7.15,7.15c-3.95,0-7.15-3.2-7.15-7.15c0-3.95,3.2-7.15,7.15-7.15
		C281.11,107.77,284.31,110.97,284.31,114.92z"/>
</g>
<g>
	<g>
		<path class="st2" d="M208.51,355.67c-1.09,0-2.17-0.34-3.09-1.02l-25.74-19.19l-25.73,19.19c-1.83,1.37-4.35,1.37-6.18,0
			l-28.82-21.49c-2.29-1.71-2.76-4.95-1.05-7.23c1.7-2.29,4.95-2.76,7.23-1.05l25.73,19.19l25.73-19.19c1.83-1.37,4.35-1.37,6.18,0
			l25.74,19.19l25.74-19.19c1.83-1.37,4.34-1.37,6.18,0l25.75,19.19l25.75-19.19c2.29-1.71,5.53-1.24,7.24,1.05
			c1.71,2.29,1.23,5.53-1.06,7.23l-28.84,21.49c-1.84,1.37-4.34,1.37-6.18,0l-25.75-19.19l-25.74,19.19
			C210.69,355.33,209.6,355.67,208.51,355.67z"/>
	</g>
</g>
<g>
	<g>
		<path class="st2" d="M208.51,387.51c-1.09,0-2.17-0.34-3.09-1.02l-25.74-19.19l-25.73,19.19c-1.83,1.37-4.35,1.37-6.18,0
			l-28.82-21.49c-2.29-1.71-2.76-4.95-1.05-7.23c1.7-2.29,4.95-2.76,7.23-1.05l25.73,19.19l25.73-19.19c1.83-1.37,4.35-1.37,6.18,0
			l25.74,19.19l25.74-19.19c1.83-1.37,4.34-1.37,6.18,0l25.75,19.19l25.75-19.19c2.29-1.7,5.53-1.24,7.24,1.06
			c1.71,2.29,1.23,5.53-1.06,7.23l-28.84,21.49c-1.84,1.37-4.34,1.37-6.18,0l-25.75-19.19l-25.74,19.19
			C210.69,387.16,209.6,387.51,208.51,387.51z"/>
	</g>
</g>
<g>
	<g>
		<path class="st4" d="M167.37,424.5c-2.85,0-5.17-2.31-5.17-5.17v-14.16c0-2.86,2.32-5.17,5.17-5.17c2.85,0,5.17,2.31,5.17,5.17
			v14.16C172.54,422.19,170.22,424.5,167.37,424.5z"/>
	</g>
</g>
<g>
	<g>
		<path class="st4" d="M179.72,424.5c-2.85,0-5.17-2.31-5.17-5.17v-14.16c0-2.86,2.32-5.17,5.17-5.17c2.85,0,5.17,2.31,5.17,5.17
			v14.16C184.89,422.19,182.57,424.5,179.72,424.5z"/>
	</g>
</g>
<g>
	<g>
		<path class="st4" d="M192.07,424.5c-2.85,0-5.17-2.31-5.17-5.17v-14.16c0-2.86,2.32-5.17,5.17-5.17c2.85,0,5.17,2.31,5.17,5.17
			v14.16C197.24,422.19,194.92,424.5,192.07,424.5z"/>
	</g>
</g>
<g>
	<g>
		<path class="st4" d="M226.82,424.5c-2.85,0-5.17-2.31-5.17-5.17v-14.16c0-2.86,2.32-5.17,5.17-5.17c2.85,0,5.17,2.31,5.17,5.17
			v14.16C231.99,422.19,229.67,424.5,226.82,424.5z"/>
	</g>
</g>
<g>
	<g>
		<path class="st4" d="M239.17,424.5c-2.85,0-5.17-2.31-5.17-5.17v-14.16c0-2.86,2.32-5.17,5.17-5.17c2.85,0,5.17,2.31,5.17,5.17
			v14.16C244.34,422.19,242.03,424.5,239.17,424.5z"/>
	</g>
</g>
<g>
	<g>
		<path class="st4" d="M251.52,424.5c-2.85,0-5.17-2.31-5.17-5.17v-14.16c0-2.86,2.32-5.17,5.17-5.17c2.85,0,5.17,2.31,5.17,5.17
			v14.16C256.69,422.19,254.38,424.5,251.52,424.5z"/>
	</g>
</g>
<g>
	<path class="st4" d="M122.9,371.55c0,5.48-5.5,9.31-10.62,7.35c-11.15-4.27-19.06-15.07-19.06-27.72v-20.99
		c0-10.39,8.42-18.81,18.81-18.81h10.86V371.55z"/>
</g>
<g>
	<path class="st4" d="M295.99,371.55c0,5.48,5.5,9.31,10.62,7.35c11.15-4.27,19.06-15.07,19.06-27.72v-20.99
		c0-10.39-8.42-18.81-18.81-18.81l-10.86,0.14V371.55z"/>
</g>
<g>
	<rect x="354.41" y="145.35" class="st5" width="61.39" height="220.47"/>
</g>
<g>
	<path class="st4" d="M415.8,365.83h-61.39v44.7c0,4.92,3.99,8.91,8.91,8.91h43.58c4.92,0,8.91-3.99,8.91-8.91V365.83z"/>
</g>
<g>
	<polygon class="st2" points="385.11,77.58 369.74,111.47 400.48,111.47 	"/>
</g>
<g>
	<polygon class="st3" points="369.74,111.47 354.37,145.35 385.11,145.35 415.84,145.35 400.48,111.47 	"/>
</g>
<g class="st1">
	<path class="st3" d="M295.77,184.73c-5.68-1.86-11.73-2.9-18.04-2.9v115.78c6.39,0,12.51-1.07,18.26-2.98
		c23.02-7.65,39.63-29.32,39.63-54.91C335.63,214.05,318.91,192.32,295.77,184.73z"/>
</g>
<g class="st1">
	<path class="st3" d="M160.57,184.72c-5.68-1.86-11.73-2.9-18.04-2.9V297.6c6.39,0,12.51-1.07,18.26-2.98
		c23.02-7.65,39.63-29.32,39.63-54.91C200.42,214.04,183.7,192.31,160.57,184.72z"/>
</g>
<g>
	<g>
		<path class="st2" d="M272.57,239.71c0-2.86,2.31-5.17,5.17-5.17l0,0c2.86,0,5.17,2.31,5.17,5.17l0,0c0,2.86-2.31,5.17-5.17,5.17
			l0,0C274.87,244.88,272.57,242.57,272.57,239.71z"/>
	</g>
</g>
<g>
	<g>
		<path class="st2" d="M137.36,239.74c0-2.86,2.31-5.17,5.17-5.17l0,0c2.86,0,5.17,2.31,5.17,5.17l0,0c0,2.86-2.31,5.17-5.17,5.17
			l0,0C139.67,244.91,137.36,242.6,137.36,239.74z"/>
	</g>
</g>
<g class="st1">
	<rect x="93.22" y="331.65" class="st4" width="29.68" height="11.78"/>
</g>
<g class="st1">
	<rect x="93.22" y="345.92" class="st4" width="29.68" height="3.66"/>
</g>
<g class="st1">
	<rect x="295.99" y="331.65" class="st4" width="29.68" height="11.78"/>
</g>
<g class="st1">
	<rect x="295.99" y="345.92" class="st4" width="29.68" height="3.66"/>
</g>
<g class="st1">
	<rect x="385.11" y="145.35" class="st5" width="30.7" height="220.47"/>
</g>
<g class="st1">
	<path class="st4" d="M385.11,419.43L385.11,419.43c16.95,0,30.7-13.74,30.7-30.7v-22.91h-30.7V419.43z"/>
</g>
<g class="st1">
	<polygon class="st2" points="400.48,111.47 385.11,77.58 385.11,111.47 	"/>
</g>
<g class="st1">
	<polygon class="st3" points="400.48,111.47 385.11,111.47 385.11,145.35 415.8,145.35 415.84,145.35 	"/>
</g>
</svg>
