<svg width="203" height="203" viewBox="0 0 203 203" fill="none" xmlns="http://www.w3.org/2000/svg">
<path d="M101.535 198.069C154.849 198.069 198.069 154.849 198.069 101.535C198.069 48.22 154.849 5 101.535 5C48.22 5 5 48.22 5 101.535C5 154.849 48.22 198.069 101.535 198.069Z" fill="#AE00D4" stroke="white" stroke-width="9.81707" stroke-linejoin="round"/>
<path d="M67.5168 99.3839C64.8059 99.3839 62.6083 101.582 62.6083 104.292C62.6083 107.003 64.8059 109.201 67.5168 109.201V99.3839ZM146.377 107.763C148.293 105.846 148.293 102.739 146.377 100.822L115.139 69.5839C113.222 67.667 110.114 67.667 108.197 69.5839C106.28 71.5008 106.28 74.6087 108.197 76.5256L135.964 104.292L108.197 132.059C106.28 133.976 106.28 137.084 108.197 139.001C110.114 140.918 113.222 140.918 115.139 139.001L146.377 107.763ZM67.5168 109.201L142.906 109.201V99.3839L67.5168 99.3839V109.201Z" fill="white"/>
</svg>
