<svg width="203" height="203" viewBox="0 0 203 203" fill="none" xmlns="http://www.w3.org/2000/svg">
<path d="M101.449 198C154.764 198 197.984 154.78 197.984 101.465C197.984 48.1509 154.764 4.93091 101.449 4.93091C48.1345 4.93091 4.91455 48.1509 4.91455 101.465C4.91455 154.78 48.1345 198 101.449 198Z" fill="white" stroke="#9C16B9" stroke-width="9.81707" stroke-linejoin="round"/>
<path d="M67.4314 99.3149C64.7205 99.3149 62.5229 101.512 62.5229 104.223C62.5229 106.934 64.7205 109.132 67.4314 109.132V99.3149ZM146.291 107.694C148.208 105.777 148.208 102.669 146.291 100.753L115.053 69.5148C113.137 67.5979 110.029 67.5979 108.112 69.5148C106.195 71.4317 106.195 74.5396 108.112 76.4565L135.879 104.223L108.112 131.99C106.195 133.907 106.195 137.015 108.112 138.932C110.029 140.849 113.137 140.849 115.053 138.932L146.291 107.694ZM67.4314 109.132L142.82 109.132V99.3149L67.4314 99.3149V109.132Z" fill="#9C16B9"/>
</svg>
