<?xml version="1.0" encoding="utf-8"?>
<!-- Generator: Adobe Illustrator 23.0.5, SVG Export Plug-In . SVG Version: 6.00 Build 0)  -->
<svg version="1.1" id="Слой_1" xmlns="http://www.w3.org/2000/svg" xmlns:xlink="http://www.w3.org/1999/xlink" x="0px" y="0px"
	 viewBox="0 0 500 500" style="enable-background:new 0 0 500 500;" xml:space="preserve">
<style type="text/css">
	.st0{fill:#2A3B4F;}
</style>
<g>
	<path class="st0" d="M285.04,409.48c-5.3-1.36-10.63-2.62-15.9-4.08c-56.97-15.88-90.05-69.91-78.41-128
		c13.45-67.06,76.01-117.29,143.08-114.88c44.35,1.59,83.99,33.81,92.62,75.75c1.3,6.31,1.52,13.14,0.71,19.53
		c-2.43,19.4-18.7,29.12-41.56,25.49c-13.34-2.12-19.49-11.59-19.04-25.11c0.3-8.82-1.22-18.27-4.38-26.49
		c-5.01-13.05-19.02-18.42-36.53-16.11c-36.08,4.77-73.01,44.14-75.94,80.45c-2.02,25.04,13.11,56.99,50.57,58.69
		c9.07,0.41,18.17,0.15,27.26,0.17c14.52,0.02,23.71,11.84,20.07,26.02c-2.77,10.79-9.84,18.11-19.83,22.41
		c-5.94,2.56-12.3,4.14-18.48,6.15C301.2,409.48,293.12,409.48,285.04,409.48z"/>
	<path class="st0" d="M98.45,164.43c0-11.42-0.2-21.97,0.06-32.5c0.26-10.5,3.11-14.25,10.33-14.72c12.18-0.8,18.49,3.26,19.59,13.7
		c0.74,6.98,0.16,14.11,0.17,21.17c0,3.98,0,7.97,0,11.92c9.03,0,17.26,0,25.49,0c1.01,0,2.02,0.01,3.03,0.03
		c12.4,0.23,17.84,3.01,18.23,9.31c0.56,9.22-9.5,20.34-19.32,20.74c-9.03,0.37-18.09,0.08-27.24,0.08
		c0,10.68-0.06,20.66,0.02,30.64c0.05,6.5-1.85,11.89-7.74,15.36c-10.41,6.13-20.94,1.48-22.33-10.46
		c-0.81-6.95-0.1-14.08-0.09-21.13c0.01-4.5,0-9.01,0-14.04c-9.97,0-19.44,0.01-28.91,0c-12.01-0.02-17.56-3.53-18.17-11.45
		c-0.66-8.68,7.4-17.85,17.36-18.5C78.44,163.94,88.04,164.43,98.45,164.43z"/>
</g>
</svg>
