<?xml version="1.0" encoding="utf-8"?>
<!-- Generator: Adobe Illustrator 23.0.5, SVG Export Plug-In . SVG Version: 6.00 Build 0)  -->
<svg version="1.1" id="Слой_1" xmlns="http://www.w3.org/2000/svg" xmlns:xlink="http://www.w3.org/1999/xlink" x="0px" y="0px"
	 viewBox="0 0 500 500" style="enable-background:new 0 0 500 500;" xml:space="preserve">
<style type="text/css">
	.st0{fill:#FFFFFF;}
	.st1{fill:#2A3B4F;}
</style>
<g>
	<path class="st0" d="M192.75,443c5.13-0.87,10.28-1.6,15.38-2.63c14.18-2.86,27.41-8.19,39.69-15.82c1.77-1.1,3.14-1.45,5.07-0.24
		c16.44,10.29,34.32,16.35,53.66,18.09c0.58,0.05,1.14,0.39,1.71,0.6C269.75,443,231.25,443,192.75,443z"/>
	<path class="st1" d="M386.78,379.8c-21.83,8.24-42.93,16.21-64.77,24.46c-5.09-13.17-9.88-25.58-14.83-38.39
		c-0.26-0.67-0.52-1.35-0.78-2.02c-0.08-0.2-0.15-0.4-0.23-0.6c-0.16-0.41-1.49-1.24-1.99-1.24c-0.26,0-0.52,0-0.78,0
		c-34.92-0.01-72.4-0.13-107.08,0.29c-2.61,0.03-3.42,3.67-4.64,6.49c-4.87,11.26-8.96,22.86-13.77,35.47
		c-21.6-8.21-42.64-16.21-64.69-24.6c1.57-4.6,2.79-8.54,4.25-12.38c32.99-86.71,66.14-173.36,98.82-260.19
		c3.25-8.65,7.28-11.95,16.58-11.25c12.27,0.92,24.7,0.79,36.99,0.02c8-0.5,11.15,2.48,13.88,9.77
		c32.07,85.82,64.53,171.5,96.87,257.22C382.62,368.18,384.51,373.57,386.78,379.8z M250.18,214.63
		c-10.43,27.54-19.65,51.87-29.11,76.83c19.89,0,38.38,0,58.13,0C269.58,265.97,260.4,241.68,250.18,214.63z"/>
</g>
</svg>
