<?xml version="1.0" encoding="utf-8"?>
<!-- Generator: Adobe Illustrator 23.0.5, SVG Export Plug-In . SVG Version: 6.00 Build 0)  -->
<svg version="1.1" id="Слой_1" xmlns="http://www.w3.org/2000/svg" xmlns:xlink="http://www.w3.org/1999/xlink" x="0px" y="0px"
	 viewBox="0 0 500 500" style="enable-background:new 0 0 500 500;" xml:space="preserve">
<style type="text/css">
	.st0{fill:#AE00D4;}
</style>
<g>
	<path class="st0" d="M371.89,267c-1.45,0-4.03,0-5.47,0c-91.25,0-182.5,0.01-273.74-0.03c-2.61,0-5.31-0.01-7.8-0.67
		c-7.3-1.94-11.44-8.84-10.68-17.2c0.66-7.21,6.26-12.97,13.58-13.83c1.98-0.23,3.99-0.2,5.99-0.2
		c90.87-0.01,181.75-0.01,272.62-0.01c1.46,0,2.93,0,5.43,0c-1.49-1.6-2.33-2.57-3.24-3.47c-16.19-16.16-32.36-32.34-48.59-48.45
		c-4.27-4.24-6.65-9.1-5.42-15.15c1.23-6.07,4.72-10.46,10.78-12.32c6.09-1.87,11.67-0.71,16.28,3.81
		c7.49,7.36,14.87,14.83,22.29,22.26c18.82,18.83,37.64,37.67,56.45,56.51c8.3,8.31,8.29,17.23-0.02,25.55
		c-25.96,26.01-52.03,51.91-77.85,78.05c-10.7,10.82-24.97,3.75-27.76-7.18c-1.6-6.26,0.7-11.21,5.06-15.55
		c16.19-16.16,32.34-32.36,48.57-48.48C369.29,269.7,371.64,267.68,371.89,267z"/>
</g>
</svg>
