<?xml version="1.0" encoding="utf-8"?>
<!-- Generator: Adobe Illustrator 23.0.5, SVG Export Plug-In . SVG Version: 6.00 Build 0)  -->
<svg version="1.1" id="Слой_1" xmlns="http://www.w3.org/2000/svg" xmlns:xlink="http://www.w3.org/1999/xlink" x="0px" y="0px"
	 viewBox="0 0 500 500" style="enable-background:new 0 0 500 500;" xml:space="preserve">
<style type="text/css">
	.st0{fill:#2A3B4F;}
</style>
<path class="st0" d="M268.91,72.7c65.33,16.53,97.64,86.68,67.76,147.22c-1.09,2.21-2.22,4.39-5.9,9.54
	c3.52,2.16,7.35,4.07,10.46,6.59c40.14,41.21,41.6,76.33,24.06,120.83c-17.51,44.42-51.76,69.66-99.84,71.81
	c-44.3,1.98-88.72,1.07-133.09,1.39c-2,0.01-4.02,0-7.8,0c0-5.06,0-10.78,0-15.57c0-109.9,0.01-219.8-0.02-329.71
	c0-4.96-0.32-9.93-0.5-14.89c43.1,0,86.2,0,129.3,0C255.89,69.91,266.2,72.01,268.91,72.7z M200.43,353.74
	c22.66,0,44.59,1.13,66.33-0.36c17.35-1.19,30.99-18.43,31.69-36.09c0.75-18.98-11.9-37.98-30.29-39.71
	c-22.33-2.09-45.01-0.5-67.73-0.5C200.43,303.31,200.43,328.35,200.43,353.74z M200.39,200.98c16.54,0,31.46,0.77,46.27-0.21
	c15.51-1.03,26.45-13.39,26.46-27.75c0.02-13.88-10.63-26.69-25.14-27.69c-15.54-1.08-31.22-0.24-47.6-0.24
	C200.39,164.02,200.39,181.98,200.39,200.98z"/>
</svg>
