<?xml version="1.0" encoding="utf-8"?>
<!-- Generator: Adobe Illustrator 23.0.5, SVG Export Plug-In . SVG Version: 6.00 Build 0)  -->
<svg version="1.1" id="Слой_1" xmlns="http://www.w3.org/2000/svg" xmlns:xlink="http://www.w3.org/1999/xlink" x="0px" y="0px"
	 viewBox="0 0 500 500" style="enable-background:new 0 0 500 500;" xml:space="preserve">
<style type="text/css">
	.st0{fill:#FFFFFF;}
</style>
<g>
	<path class="st0" d="M136.7,104.5c0.62,1.68,0.2,4.23-0.72,5.86c-1.18,2.11-3.33,3.68-5.02,5.52
		c-38.72,42.29-56.45,92.21-52.68,149.28c3.18,48.04,22.25,89.42,55.72,124.1c0.43,0.45,0.89,0.88,1.3,1.35
		c2.65,2.98,2.79,6.32,0.38,8.67c-2.5,2.44-5.82,2.4-8.57-0.61c-5.82-6.35-11.82-12.59-17.04-19.42
		c-33.06-43.23-47.62-92.16-43.06-146.31c4.2-49.84,24.3-92.77,59.19-128.68c0.71-0.73,2.52-2.49,5.59-2.49
		C135.02,101.77,136.39,103.64,136.7,104.5z"/>
	<path class="st0" d="M434.85,256.94c-0.91,50.57-20.38,99.56-59.69,140.46c-0.78,0.81-1.53,1.67-2.44,2.32
		c-2.59,1.86-5.22,1.75-7.46-0.51c-2.24-2.26-2.25-4.9-0.48-7.49c0.56-0.82,1.33-1.49,2.02-2.21c40.69-42.6,59.6-93.44,55.93-152.12
		c-2.99-47.78-21.8-89.02-54.82-123.73c-0.86-0.91-1.79-1.75-2.6-2.7c-2.26-2.66-2.3-5.89-0.16-8.11c2.35-2.42,5.69-2.53,8.32,0.11
		c3.79,3.8,7.48,7.72,10.98,11.8C416.91,152.5,434.83,201.03,434.85,256.94z"/>
	<path class="st0" d="M166.52,335.77c1.81-7.56,3.52-14.66,5.2-21.77c7.83-33.27,15.65-66.55,23.49-99.82
		c1.38-5.86,2.6-6.78,8.82-6.78c42.98,0,85.97,0,128.95,0c1.25,0,2.54-0.12,3.74,0.13c2.91,0.62,4.58,2.51,4.59,5.53
		c0.02,3.03-1.66,4.93-4.55,5.58c-1.31,0.3-2.74,0.14-4.11,0.14c-40.86,0.01-81.72,0.05-122.57-0.08c-3.26-0.01-4.43,0.99-5.15,4.11
		c-9.49,40.83-19.12,81.62-28.72,122.43c-0.2,0.85-0.41,1.7-0.64,2.54c-1.53,5.55-6.35,6.98-10.48,2.93
		c-8.29-8.14-16.45-16.41-24.67-24.63c-2.56-2.56-5.17-5.08-7.67-7.7c-2.8-2.94-2.94-6.21-0.52-8.61c2.46-2.44,5.7-2.33,8.61,0.54
		c7.56,7.46,15.04,15,22.56,22.5C164.26,333.68,165.17,334.51,166.52,335.77z"/>
	<path class="st0" d="M277.27,288.8c6.45,7.91,12.76,15.64,19.08,23.38c0.55,0.68,1.14,1.33,1.64,2.04
		c1.99,2.87,1.74,6.06-0.62,8.09c-2.51,2.17-5.87,1.95-8.28-0.9c-5.24-6.2-10.31-12.55-15.46-18.83c-1.18-1.44-2.38-2.86-3.84-4.62
		c-5.32,6.49-10.43,12.73-15.55,18.96c-1.27,1.55-2.47,3.15-3.83,4.61c-2.44,2.6-5.54,2.91-8.03,0.92c-2.6-2.08-3.02-5.39-0.68-8.31
		c6.16-7.71,12.45-15.31,18.69-22.96c0.55-0.67,1.08-1.36,1.87-2.36c-2.13-2.66-4.27-5.36-6.45-8.03
		c-4.58-5.62-9.21-11.19-13.74-16.84c-2.59-3.22-2.48-6.4,0.11-8.65c2.63-2.28,6.17-1.78,8.81,1.42
		c6.21,7.51,12.34,15.07,18.79,22.95c5.65-6.9,11.17-13.64,16.69-20.37c0.95-1.16,1.84-2.38,2.89-3.44
		c2.29-2.33,5.41-2.59,7.77-0.75c2.48,1.94,3.06,5.3,0.98,8.01c-3.97,5.14-8.16,10.11-12.26,15.15
		C283.03,281.74,280.19,285.21,277.27,288.8z"/>
	<path class="st0" d="M330.49,181.37c3.75,0,6.47-0.14,9.18,0.03c3.63,0.23,5.68,2.22,5.71,5.2c0.03,3.23-2.03,5.31-5.83,5.39
		c-6.24,0.14-12.49,0.2-18.73,0.01c-6.09-0.18-8.82-5.02-5.2-10.07c3.08-4.29,7.38-7.7,11.16-11.48c1.76-1.75,3.82-3.27,5.28-5.23
		c1.53-2.06,1.94-4.64-0.87-6.07c-2.56-1.29-4.84-0.26-5.62,2.49c-1.71,6-5.89,6.47-8.57,5.15c-3.19-1.58-3.73-6.18-1.11-10.67
		c3.53-6.05,9.22-7.59,15.74-7.15c5.52,0.37,9.84,2.65,12.13,7.94c2.56,5.92,0.76,11.08-3.32,15.47
		C337.67,175.39,334.38,177.9,330.49,181.37z"/>
</g>
</svg>
