<?xml version="1.0" encoding="utf-8"?>
<!-- Generator: Adobe Illustrator 23.0.5, SVG Export Plug-In . SVG Version: 6.00 Build 0)  -->
<svg version="1.1" id="Слой_1" xmlns="http://www.w3.org/2000/svg" xmlns:xlink="http://www.w3.org/1999/xlink" x="0px" y="0px"
	 viewBox="0 0 500 500" style="enable-background:new 0 0 500 500;" xml:space="preserve">
<style type="text/css">
	.st0{fill:#FFFFFF;}
</style>
<g>
	<path class="st0" d="M241.75,440V259.25H61v-23.09c0.23-2.22,0.45-4.43,0.67-6.65c0.47-4.82,0.97-9.8,1.6-14.66
		c4.79-36.94,15.19-67.03,31.79-91.99c10.54-15.85,22.18-26.79,35.6-33.46c9.89-4.92,19.78-7.41,29.4-7.41
		c13.19,0,26.33,4.68,39.06,13.91c13.39,9.71,24.05,22.94,34.58,42.89c0.2,0.38,0.39,0.76,0.58,1.14c0.26,0.52,0.52,1.03,0.79,1.54
		c0.33,0.61,6.5,13.66,6.5,13.66V62.26h16.66v180.38h180.72c0,0.94,0.01,1.87,0.02,2.79c0.03,4.09,0.06,7.96-0.05,11.86
		c-1.11,40.05-8.81,74.01-23.54,103.81c-9.37,18.97-20.4,33.24-33.73,43.63c-12.7,9.91-27.03,15.14-41.44,15.14
		c-15.29,0-30.3-5.84-43.4-16.9c-11.81-9.96-21.52-22.63-30.56-39.86l-0.45-0.87c-0.32-0.62-0.64-1.24-0.98-1.85
		c-0.45-0.8-6.59-14.36-6.59-14.36V440H241.75z M258.71,262.5c0,0.33-0.01,0.63-0.02,0.92c-0.02,0.7-0.04,1.42,0.05,2.19
		c0.4,3.52,0.76,7.11,1.11,10.59c0.81,8.05,1.64,16.38,3.09,24.52c4.93,27.68,13.9,50.71,27.42,70.41
		c9.63,14.03,19.78,23.03,31.94,28.32c1.22,0.53,2.48,0.93,3.8,1.36c0.64,0.2,1.32,0.42,2.06,0.67l3.97,1.35v-15.7h16.54v15.37
		l3.79-1.03c7.55-2.05,14.29-5.73,21.21-11.59c9.08-7.69,16.9-17.66,23.9-30.47c12.51-22.9,20.16-49.19,23.39-80.39
		c0.39-3.75,0.63-7.54,0.86-11.21c0.11-1.7,0.22-3.4,0.34-5.09l0.23-3.22h-73.91v10.81h-16.58V259.5h-73.2V262.5z M147.17,100.33
		c-1.12,0.48-2.18,0.9-3.2,1.3c-2.14,0.85-4.16,1.66-6.11,2.69c-12.89,6.85-23.45,17.79-33.24,34.42
		C91.85,160.44,83.74,185.71,79.83,216c-0.68,5.28-1.12,10.68-1.55,15.91c-0.2,2.44-0.4,4.89-0.62,7.36l-0.3,3.27h73.97v-10.8h16.72
		v10.8h73.52l-0.14-3.14c-1.47-32.14-7.49-59.73-18.4-84.35c-8.36-18.85-17.86-32.45-29.9-42.8c-6.86-5.9-13.68-9.64-21.46-11.78
		l-3.8-0.89v1.05v11.57h-16.54v-12.4v-0.83L147.17,100.33z"/>
	<rect x="117.25" y="423.73" class="st0" width="62.25" height="16.27"/>
	<polygon class="st0" points="309.42,168.74 309.42,112.52 287.12,112.52 287.12,95.88 309.34,95.88 309.34,73.56 325.99,73.56 
		325.99,95.81 393.63,95.81 393.63,112.25 326.11,112.25 326.11,168.74 	"/>
	<path class="st0" d="M388.6,213.84l0-0.97c0-3,0.01-6.01-0.01-9.01c-0.01-1.46,0.1-2.98,0.21-4.59c0.29-4.09,0.58-8.31-1.02-12.1
		c-1.65-3.9-4.92-6.79-8.08-9.57c-1.2-1.06-2.33-2.05-3.35-3.08c-1.75-1.77-3.53-3.45-5.58-5.4c-0.24-0.23-0.48-0.46-0.73-0.69
		c0.11-0.09,0.21-0.18,0.32-0.27c2.09-1.8,4.06-3.5,5.95-5.37c1.9-1.88,3.63-3.83,5.46-5.89c0.1-0.11,0.2-0.23,0.3-0.34l14.58,15.16
		l14.22-14.91l12.11,12.08c-0.62,0.64-1.25,1.28-1.87,1.93c-2.94,3.04-5.99,6.19-9.22,8.93c-5.18,4.38-7.35,9.61-6.84,16.44
		c0.34,4.6,0.27,9.22,0.18,14.11c-0.02,1.18-0.04,2.36-0.05,3.55H388.6z"/>
	<polygon class="st0" points="122.42,333.24 134.56,321.45 122.12,310.33 134.29,298.25 145.28,310.69 156.73,297.8 168.72,309.81 
		156.84,320.92 169.41,332.4 157.16,344.55 145.57,331.61 134.32,345.08 	"/>
	<rect x="117.6" y="378.57" class="st0" width="61.49" height="16.04"/>
	<path class="st0" d="M151.56,157.37v-16.33l5.75-0.01c3.16,0,6.84,0.01,10.6,0.07c0.08,4.83,0.07,9.63,0.06,14.69l0,1.59H151.56z"
		/>
	<rect x="151.58" y="186.49" class="st0" width="16.09" height="16.13"/>
	<path class="st0" d="M336.29,360.99c-1.66,0-3.36,0-4.15-0.13c-0.13-0.79-0.13-2.49-0.13-4.14v-12.17h16.43v16.43H336.29z"/>
	<rect x="332.21" y="299.37" class="st0" width="16.22" height="16.15"/>
</g>
</svg>
