<svg width="59" height="59" viewBox="0 0 59 59" fill="none" xmlns="http://www.w3.org/2000/svg">
<g clip-path="url(#clip0_147_2488)">
<path d="M59 29.5C59 45.7926 45.7926 59 29.5 59C13.2074 59 0 45.7926 0 29.5C0 13.2074 13.2074 0 29.5 0C45.7926 0 59 13.2074 59 29.5Z" fill="#AE00D4"/>
<path d="M33.534 43.3277H14.0509C13.436 43.3277 13.0655 42.9847 12.899 42.7803C12.6114 42.427 12.5002 41.966 12.5938 41.5168C14.2224 33.693 21.1265 27.9794 29.0971 27.7922C29.2308 27.7971 29.3649 27.8007 29.4999 27.8007C29.6318 27.8007 29.7628 27.7971 29.8934 27.7926C32.3439 27.8467 34.7008 28.4026 36.9042 29.45C37.7662 29.8601 38.7975 29.4932 39.2071 28.6312C39.6172 27.7692 39.2503 26.738 38.3883 26.3284C37.6883 25.9953 36.9753 25.704 36.2511 25.4537C38.779 23.4547 40.4044 20.3618 40.4044 16.8962C40.4044 10.8838 35.5128 5.99219 29.4999 5.99219C23.4875 5.99219 18.5959 10.8838 18.5959 16.8962C18.5959 20.3659 20.2249 23.4623 22.7583 25.4609C20.4365 26.2595 18.2574 27.4667 16.3416 29.0422C12.6987 32.0392 10.1658 36.2192 9.20924 40.8123C8.90269 42.2847 9.27 43.7972 10.2171 44.9617C11.1592 46.1203 12.5569 46.7852 14.0509 46.7852H33.534C34.4888 46.7852 35.2626 46.0109 35.2626 45.0566C35.2626 44.1019 34.4888 43.3277 33.534 43.3277ZM22.0525 16.8962C22.0525 12.7897 25.3934 9.44877 29.4999 9.44877C33.6065 9.44877 36.9474 12.7897 36.9474 16.8962C36.9474 20.8889 33.7884 24.1574 29.8384 24.3352C29.7255 24.3334 29.6129 24.3302 29.4999 24.3302C29.3789 24.3302 29.2578 24.332 29.1371 24.3343C25.1985 24.1443 22.0525 20.8808 22.0525 16.8962Z" fill="white"/>
<path d="M48.1678 37.3954H43.9636V33.1912C43.9636 32.2369 43.1898 31.4626 42.2351 31.4626C41.2808 31.4626 40.5065 32.2369 40.5065 33.1912V37.3954H36.3027C35.348 37.3954 34.5742 38.1692 34.5742 39.1239C34.5742 40.0787 35.348 40.8524 36.3027 40.8524H40.5065V45.0563C40.5065 46.011 41.2808 46.7848 42.2351 46.7848C43.1898 46.7848 43.9636 46.011 43.9636 45.0563V40.8524H48.1678C49.1226 40.8524 49.8963 40.0787 49.8963 39.1239C49.8963 38.1692 49.1226 37.3954 48.1678 37.3954Z" fill="white"/>
</g>
<defs>
<clipPath id="clip0_147_2488">
<rect width="59" height="59" fill="white"/>
</clipPath>
</defs>
</svg>
