<?xml version="1.0" encoding="utf-8"?>
<!-- Generator: Adobe Illustrator 23.0.5, SVG Export Plug-In . SVG Version: 6.00 Build 0)  -->
<svg version="1.1" id="Слой_1" xmlns="http://www.w3.org/2000/svg" xmlns:xlink="http://www.w3.org/1999/xlink" x="0px" y="0px"
	 viewBox="0 0 500 500" style="enable-background:new 0 0 500 500;" xml:space="preserve">
<style type="text/css">
	.st0{fill:#2A3B4F;}
</style>
<g>
	<path class="st0" d="M123.07,441.56c-2.03-0.77-4.04-1.57-5.81-2.73c-11.6-7.59-14.11-22.56-5.85-34.22
		c15.24-21.51,30.58-42.94,45.87-64.41c20.59-28.89,41.18-57.78,61.77-86.68c0.65-0.91,1.23-1.86,1.94-2.93
		c-9.85-13.77-19.66-27.48-29.47-41.18c-26.68-37.28-53.41-74.53-80.01-111.87c-10.83-15.2-2.93-34.91,15.16-38.2
		c1.71-0.31,3.48-0.32,5.22-0.32c79.12-0.01,158.24-0.02,237.35,0c15.04,0,25.22,10.15,25.26,25.13c0.04,14.37,0.01,28.75,0,43.12
		c0,1.09-0.11,2.18-0.18,3.46c-15.9,0-31.59,0-47.62,0c0-7.76,0-15.45,0-23.45c-56.45,0-112.56,0-169.16,0
		c1.06,1.56,1.91,2.88,2.83,4.16c29.44,41.15,58.89,82.29,88.33,123.44c7.88,11.02,7.86,20.57-0.07,31.7
		c-29.42,41.31-58.86,82.62-88.28,123.92c-0.91,1.28-1.8,2.58-3.02,4.33c56.65,0,112.68,0,169.1,0c0-7.79,0-15.59,0-23.6
		c16.1,0,31.8,0,48.09,0c0,1.22,0,2.53,0,3.84c0,13,0,26,0,39c0,15.72-3.76,22.28-16.86,27.65c-1.07,0.44-6.75,1.29-8.43,1.29
		c-78.54,0-157.09,0-235.63,0C131.31,443,124.3,442.03,123.07,441.56z"/>
</g>
</svg>
