<svg width="59" height="59" viewBox="0 0 59 59" fill="none" xmlns="http://www.w3.org/2000/svg">
<circle cx="29.5" cy="29.5" r="28.5" fill="#F8F8F8" stroke="#9C16B9" stroke-width="2"/>
<path d="M27.2661 19.664L22.0386 13.483C21.436 12.7707 20.3311 12.7739 19.6311 13.4925L15.3323 17.9039C14.0528 19.216 13.6866 21.1645 14.4268 22.7268C18.8486 32.105 26.2324 39.679 35.3817 44.2216C36.9052 44.9798 38.8059 44.6047 40.0853 43.2925L44.4243 38.84C45.1274 38.1198 45.129 36.9817 44.4274 36.3644L38.3701 31.0382C37.7366 30.481 36.7523 30.5539 36.1172 31.206L34.0095 33.3681C33.9016 33.484 33.7595 33.5603 33.6052 33.5855C33.4508 33.6107 33.2927 33.5832 33.155 33.5074C29.7098 31.4752 26.852 28.544 24.8725 25.0124C24.7984 24.8711 24.7716 24.7088 24.7961 24.5504C24.8207 24.392 24.8953 24.2463 25.0085 24.1355L27.11 21.9812C27.7467 21.3259 27.8162 20.3129 27.2661 19.6624V19.664Z" stroke="#9C16B9" stroke-width="2" stroke-linecap="round" stroke-linejoin="round"/>
</svg>
