<?xml version="1.0" encoding="utf-8"?>
<!-- Generator: Adobe Illustrator 23.0.5, SVG Export Plug-In . SVG Version: 6.00 Build 0)  -->
<svg version="1.1" id="Слой_1" xmlns="http://www.w3.org/2000/svg" xmlns:xlink="http://www.w3.org/1999/xlink" x="0px" y="0px"
	 viewBox="0 0 500 500" style="enable-background:new 0 0 500 500;" xml:space="preserve">
<style type="text/css">
	.st0{fill:#2A3B4F;}
</style>
<g>
	<path class="st0" d="M86.08,240.35c1.35-5.89,2.39-11.9,4.66-17.42c10.93-26.64,30.14-44.66,58.55-50.66
		c30.42-6.43,56.51,3.19,78.1,25.23c3.36,3.43,6.43,7.24,9.14,11.2c5.28,7.71,3.45,17.35-3.92,22.45
		c-7.26,5.03-16.7,3.43-22.17-4.08c-8.09-11.11-18.22-19.41-31.67-22.91c-24.74-6.45-49.19,6.66-58.48,31.07
		c-6,15.78-1.78,29.98,7.07,43.22c6.74,10.09,15.93,17.04,28.18,19.23c11.6,2.07,22.1-1.03,31.87-7.13
		c12.83-8.02,22.88-19.06,32.55-30.45c11.81-13.91,23.14-28.22,35.11-41.99c12.65-14.55,26.35-28.12,43.72-37.03
		c27.95-14.35,56.29-15.51,83.86,0.54c17.31,10.08,26.25,26.66,30.22,45.93c3.52,17.13,3.12,34.11-2.92,50.73
		c-6.02,16.55-15.22,30.71-30.39,40.33c-11.31,7.18-23.82,9.95-37.08,9.8C313.38,328.1,290,315.82,271,294.34
		c-1.78-2.01-3.49-4.08-5.21-6.14c-5.54-6.64-5.09-15.9,1.05-21.83c6.18-5.96,15.85-6.11,22.1-0.08c3.16,3.04,5.85,6.57,8.89,9.75
		c13.94,14.58,30.85,21.8,51.14,20.02c10.11-0.89,18.2-5.82,23.64-14.35c11.71-18.34,13.73-37.85,5.48-58.04
		c-4.88-11.95-14.56-18.09-27.02-20.3c-21.68-3.85-39.23,4.48-54.87,18.51c-15.51,13.9-28.11,30.38-41.26,46.38
		c-11.38,13.86-22.81,27.68-36.56,39.32c-13.49,11.42-28.4,19.93-46.31,22.19c-17.51,2.21-33.82-1.25-48.45-11.08
		c-21.49-14.44-33.75-34.83-37.63-60.36c-0.07-0.45-0.76-4.4-0.76-8.49C85.25,245.44,85.97,240.87,86.08,240.35z"/>
</g>
</svg>
