<svg width="62" height="60" viewBox="0 0 62 60" fill="none" xmlns="http://www.w3.org/2000/svg">
<path d="M31.3073 60C48.2586 60 62.0004 46.5685 62.0004 30C62.0004 13.4315 48.2586 0 31.3073 0C14.356 0 0.614258 13.4315 0.614258 30C0.614258 46.5685 14.356 60 31.3073 60Z" fill="white"/>
<path d="M35.4378 11.0555C41.1419 11.4818 45.968 15.5072 47.4696 21.0164C47.7568 22.0727 47.9149 23.1885 47.9503 24.284C48.0224 26.4953 48.006 28.7104 47.9643 30.9242C47.8428 37.2392 42.9851 42.8345 36.7484 43.8516C35.911 43.9882 35.052 44.0451 34.2032 44.0565C32.1323 44.0856 30.0602 44.0553 27.9893 44.0793C27.7401 44.0818 27.4327 44.2071 27.2556 44.3816C25.5187 46.0869 23.802 47.815 22.0816 49.5379C21.8425 49.777 21.6123 50.0237 21.2214 49.8744C20.814 49.7188 20.7912 49.3811 20.7925 49.0155C20.7963 47.0863 20.7887 45.1584 20.8001 43.2292C20.8026 42.9104 20.7179 42.7346 20.4181 42.5688C15.678 39.949 13.1782 35.935 13.034 30.5092C12.9784 28.3916 12.9986 26.2714 13.0404 24.1537C13.1643 17.9499 17.9449 12.38 24.0664 11.3098C25.0114 11.144 25.9792 11.0833 26.9393 11.0479C28.1234 11.0036 29.31 11.0378 30.4966 11.0378C30.4953 11.0568 33.7882 10.9315 35.4378 11.0555ZM19.6552 23.2391C19.7172 24.9747 20.3611 26.5294 21.2049 28.007C23.3188 31.7123 26.2183 34.6915 29.7464 37.0621C31.2215 38.0539 32.7914 38.8711 34.5776 39.1532C35.601 39.3152 36.6156 39.2873 37.4379 38.5346C38.1374 37.8945 38.8206 37.2342 39.4733 36.5485C40.2323 35.7503 40.2007 34.6156 39.4392 33.8249C38.5283 32.8799 37.6226 31.9324 36.7016 30.9975C35.6162 29.897 34.0944 30.1841 33.4606 31.5984C32.9976 32.632 31.9527 33.1443 30.9229 32.7104C28.6028 31.7351 26.9317 30.0703 26.0386 27.7047C25.5946 26.5269 26.0665 25.63 27.229 25.167C28.532 24.6483 28.928 23.1379 27.9906 22.1069C27.0658 21.0898 26.1069 20.1018 25.1265 19.1391C24.2612 18.289 23.0759 18.3333 22.2081 19.1922C21.7021 19.6919 21.2201 20.2182 20.6938 20.6951C19.9348 21.3833 19.6148 22.2308 19.6552 23.2391ZM41.3797 25.4491C41.3266 20.2688 36.9458 16.1245 31.7933 16.4243C31.2733 16.4547 30.9862 16.6938 30.9887 17.0935C30.9925 17.4642 31.2822 17.6653 31.8047 17.6906C32.3878 17.7197 32.9811 17.7121 33.5504 17.8184C38.0008 18.652 40.7346 22.7267 39.849 27.1721C39.7529 27.6528 39.9262 27.9716 40.3247 28.045C40.7067 28.1158 41.042 27.8742 41.1166 27.4162C41.2229 26.7647 41.2937 26.1056 41.3797 25.4491ZM32.3587 18.9885C32.1374 18.9885 31.916 18.9734 31.6971 18.9911C31.205 19.0316 30.9128 19.3288 30.9546 19.7286C30.9963 20.1309 31.3214 20.3434 31.8262 20.3017C34.3828 20.0841 36.6902 21.7375 37.2532 24.246C37.3784 24.8027 37.3303 25.401 37.3443 25.9804C37.3544 26.3852 37.5403 26.6433 37.9338 26.7217C38.269 26.7888 38.5891 26.5218 38.6586 26.1297C38.6941 25.9285 38.7054 25.7211 38.708 25.5174C38.7535 21.9639 35.9148 19.0379 32.3587 18.9885ZM32.5713 21.6451C32.0058 21.6287 31.6617 21.845 31.6744 22.246C31.687 22.6281 31.9059 22.8431 32.298 22.8912C33.9198 23.0885 34.6649 23.8349 34.8711 25.463C34.9192 25.8438 35.1241 26.0778 35.5125 26.0955C35.868 26.112 36.1134 25.8122 36.1222 25.3972C36.1652 23.4782 34.484 21.702 32.5713 21.6451Z" fill="#AE00D4"/>
</svg>
