<?xml version="1.0" encoding="utf-8"?>
<!-- Generator: Adobe Illustrator 23.0.5, SVG Export Plug-In . SVG Version: 6.00 Build 0)  -->
<svg version="1.1" id="Слой_1" xmlns="http://www.w3.org/2000/svg" xmlns:xlink="http://www.w3.org/1999/xlink" x="0px" y="0px"
	 viewBox="0 0 500 500" style="enable-background:new 0 0 500 500;" xml:space="preserve">
<style type="text/css">
	.st0{fill:#2A3B4F;}
</style>
<g>
	<path class="st0" d="M58.9,246.89c3.17-8.18,9.4-11.27,18.32-10.98c11.49,0.38,23,0.08,34.49,0.1c9.05,0.01,13.91,3.5,16.69,12.06
		c6.43,19.82,12.83,39.65,19.25,59.47c0.26,0.81,0.59,1.59,1.27,3.43c1.71-10.52,3.27-20.01,4.8-29.5
		c6.16-38.21,12.32-76.42,18.48-114.63c2.29-14.17,4.49-28.36,6.92-42.51c1.4-8.16,7.17-12.81,15.52-12.81
		c77.37-0.02,154.74-0.02,232.11,0c9.12,0,15.78,6.45,15.75,15.04c-0.03,8.7-6.74,14.93-16.25,14.94
		c-71.62,0.02-143.24,0.01-214.86,0.01c-1.48,0-2.95,0-4.72,0c-1.67,10.34-3.29,20.41-4.92,30.49
		c-5.89,36.48-11.77,72.97-17.66,109.45c-5.09,31.55-10.2,63.1-15.26,94.66c-1.34,8.37-6.49,13.79-13.86,14.36
		c-7.41,0.58-13.41-3.83-16.03-11.93c-11.6-35.98-23.23-71.95-34.65-107.98c-1.15-3.62-2.64-4.84-6.44-4.64
		c-6.86,0.36-13.76-0.18-20.61,0.17c-8.78,0.45-14.97-2.69-18.19-10.62c-0.1-0.24-0.59-2.37-0.61-4.45
		C58.4,249.01,58.83,247.06,58.9,246.89z"/>
	<path class="st0" d="M317.25,294.15c-0.71,1.2-1.2,2.61-2.15,3.57c-15.16,15.24-30.36,30.44-45.6,45.6
		c-6.41,6.37-14.99,6.86-21.21,1.36c-6.84-6.06-6.91-15.58-0.01-22.52c14.01-14.09,28.09-28.11,42.17-42.13
		c2.03-2.03,4.19-3.92,6.62-6.18c-1.19-1.3-2.05-2.29-2.98-3.22c-15.29-15.29-30.58-30.58-45.88-45.85
		c-4.44-4.43-6.24-9.65-4.32-15.72c1.76-5.56,5.7-9.05,11.43-10.21c5.61-1.14,10.26,0.86,14.24,4.84
		c15.09,15.13,30.23,30.22,45.32,45.35c0.96,0.96,1.67,2.18,2.71,3.56c1.57-1.44,2.58-2.3,3.51-3.23
		c15.21-15.19,30.43-30.37,45.6-45.6c3.97-3.98,8.59-6.08,14.2-4.95c5.86,1.17,9.91,4.68,11.59,10.49
		c1.66,5.77,0.22,10.88-4.02,15.12c-13.33,13.36-26.68,26.7-40.04,40.02c-2.91,2.9-5.95,5.68-9.14,8.71
		c1.26,1.35,2.15,2.35,3.09,3.29c15.37,15.38,30.76,30.75,46.12,46.13c4.25,4.26,5.66,9.37,3.97,15.13
		c-1.69,5.8-5.75,9.28-11.62,10.44c-5.63,1.11-10.22-1.02-14.18-5c-14.82-14.88-29.7-29.69-44.51-44.57
		c-1.22-1.23-2.1-2.79-3.14-4.2C318.43,294.31,317.84,294.23,317.25,294.15z"/>
</g>
</svg>
