<?xml version="1.0" encoding="utf-8"?>
<!-- Generator: Adobe Illustrator 23.0.5, SVG Export Plug-In . SVG Version: 6.00 Build 0)  -->
<svg version="1.1" id="Слой_1" xmlns="http://www.w3.org/2000/svg" xmlns:xlink="http://www.w3.org/1999/xlink" x="0px" y="0px"
	 viewBox="0 0 500 500" style="enable-background:new 0 0 500 500;" xml:space="preserve">
<style type="text/css">
	.st0{fill:#2A3B4F;}
</style>
<path class="st0" d="M61.64,220.52c11.87-50.18,55.22-88.3,106.63-93.89c28.28-3.07,54.65,2.67,78.93,17.54
	c2.15,1.32,3.57,1.25,5.68-0.05c73.14-45.05,169.65-3.02,186.67,81.25c13.54,67.05-30.33,133.14-97.24,146.44
	c-2.54,0.51-11.66,1.72-20.16,2.06c-8.19,0.33-15.83-0.2-16.12-0.22c-19.33-1.74-37.22-7.8-53.66-18.09
	c-1.93-1.21-3.3-0.86-5.07,0.24c-12.28,7.63-25.51,12.96-39.69,15.82c-2.51,0.51-11.37,2.25-19.84,2.63
	c-8.76,0.39-17.08-0.59-17.51-0.63c-53.21-5.05-97.72-44.32-109.22-96.49c-0.63-2.84-3.1-14.82-3-27.11
	C58.14,237.13,60.84,223.92,61.64,220.52z M230.79,160.88c-41.07-22.92-97.63-14.73-129.99,28.4
	c-31.17,41.54-25.9,99.53,12.29,135.12c37.6,35.05,89.34,32.18,117.44,14.42C181.95,292.44,180.52,208.64,230.79,160.88z
	 M269.13,161.09c24.18,24.66,37.18,54.08,37.24,88.75c0.05,34.78-13,64.3-37.22,89.07c36.55,21.21,91.07,17.14,125.51-22.56
	c33.37-38.46,33.07-95.54-1.14-133.98C358.46,142.99,304.24,140.54,269.13,161.09z M283.22,261.03c1.2-11.35,0.73-22.42-1.91-33.41
	c-21.03,0-41.81,0-62.67,0c-2.58,11.13-3.07,22.12-1.9,33.41C239,261.03,260.92,261.03,283.22,261.03z M250,325.71
	c12.86-11.67,22.17-25.21,27.89-41.44c-18.8,0-37.14,0-55.85,0C227.95,300.62,237.17,314.14,250,325.71z M250.19,174.48
	c-8.33,6.24-20.04,21.61-22.96,29.99c15.21,0,30.4,0,45.92,0C267.27,192.82,259.74,183.02,250.19,174.48z"/>
</svg>
