<svg width="117" height="134" viewBox="0 0 117 134" fill="none" xmlns="http://www.w3.org/2000/svg">
<g clip-path="url(#clip0_181_4593)">
<path d="M64.707 69.736C64.1307 69.736 63.5781 69.5054 63.1706 69.0949C62.7631 68.6844 62.5342 68.1277 62.5342 67.5472V23.5226C62.5342 22.9421 62.7631 22.3853 63.1706 21.9748C63.5781 21.5643 64.1307 21.3337 64.707 21.3337C65.2833 21.3337 65.836 21.5643 66.2434 21.9748C66.6509 22.3853 66.8799 22.9421 66.8799 23.5226V67.5472C66.8799 68.1277 66.6509 68.6844 66.2434 69.0949C65.836 69.5054 65.2833 69.736 64.707 69.736Z" fill="#6E6D64"/>
<path d="M56.1464 72.9608C55.7702 72.9574 55.4012 72.8569 55.0745 72.669L34.0994 60.4261C33.5999 60.1359 33.2354 59.6577 33.086 59.0967C32.9366 58.5357 33.0145 57.9379 33.3026 57.4347C33.5908 56.9316 34.0655 56.5644 34.6224 56.4139C35.1793 56.2634 35.7728 56.3419 36.2722 56.6322L57.2473 68.8166C57.6633 69.0579 57.9884 69.4311 58.1716 69.878C58.3549 70.3249 58.3861 70.8204 58.2604 71.2871C58.1346 71.7537 57.859 72.1653 57.4766 72.4576C57.0941 72.7498 56.6264 72.9062 56.1464 72.9025V72.9608Z" fill="#6E6D64"/>
<path d="M33.3174 101.751C32.7689 101.727 32.2504 101.492 31.8689 101.095C31.462 100.684 31.2334 100.128 31.2334 99.5479C31.2334 98.9678 31.462 98.4115 31.8689 98.0011L55.857 74.245C56.2758 73.9056 56.8046 73.7347 57.3413 73.7652C57.8779 73.7957 58.3843 74.0255 58.7625 74.4102C59.1408 74.7948 59.3641 75.3071 59.3893 75.848C59.4145 76.3888 59.2398 76.9199 58.8989 77.3386L34.8674 101.124C34.4526 101.53 33.8958 101.755 33.3174 101.751Z" fill="#6E6D64"/>
<path d="M90.9986 94.5427C90.5106 94.5418 90.0368 94.3775 89.6515 94.0758L67.6769 76.5651C67.2235 76.2052 66.9307 75.6786 66.8628 75.1012C66.7949 74.5238 66.9574 73.9429 67.3147 73.4862C67.672 73.0295 68.1948 72.7345 68.768 72.6661C69.3412 72.5977 69.9179 72.7615 70.3712 73.1214L92.3458 90.632C92.7017 90.9134 92.9616 91.2997 93.0891 91.737C93.2166 92.1743 93.2054 92.6409 93.0571 93.0715C92.9088 93.5021 92.6307 93.8753 92.2617 94.139C91.8927 94.4028 91.4511 94.5439 90.9986 94.5427Z" fill="#6E6D64"/>
<path d="M44.4707 111.616C44.4707 105.675 42.1281 99.9777 37.9581 95.7771C33.7882 91.5764 28.1325 89.2166 22.2354 89.2166V134C28.13 134 33.7835 131.642 37.953 127.445C42.1225 123.247 44.4669 117.554 44.4707 111.616Z" fill="#6E6D64"/>
<path d="M22.2355 134V89.2165C19.2687 89.1402 16.3167 89.663 13.5537 90.754C10.7906 91.8449 8.27226 93.4821 6.14714 95.5689C4.02201 97.6557 2.33308 100.15 1.1799 102.905C0.0267168 105.659 -0.567383 108.619 -0.567383 111.608C-0.567383 114.598 0.0267168 117.557 1.1799 120.312C2.33308 123.066 4.02201 125.561 6.14714 127.648C8.27226 129.734 10.7906 131.372 13.5537 132.462C16.3167 133.553 19.2687 134.076 22.2355 134Z" fill="#BAB8A4"/>
<path d="M117 99.5624C117 95.5065 115.401 91.6168 112.554 88.7489C109.707 85.881 105.846 84.2698 101.819 84.2698V114.913C103.818 114.913 105.797 114.516 107.642 113.744C109.488 112.972 111.164 111.84 112.574 110.414C113.985 108.987 115.102 107.295 115.861 105.433C116.621 103.57 117.008 101.576 117 99.5624Z" fill="#2A3B4F"/>
<path d="M101.819 114.84V84.1969C97.7853 84.1969 93.9166 85.8112 91.0642 88.6845C88.2118 91.5579 86.6094 95.4551 86.6094 99.5187C86.6094 103.582 88.2118 107.479 91.0642 110.353C93.9166 113.226 97.7853 114.84 101.819 114.84Z" fill="#374D63"/>
<path d="M77.6282 72.9609C77.6282 69.1373 76.1203 65.4702 73.4363 62.7665C70.7524 60.0628 67.1121 58.5438 63.3164 58.5438V87.3634C67.1096 87.3634 70.7477 85.8465 73.4312 83.1459C76.1148 80.4453 77.6243 76.782 77.6282 72.9609Z" fill="#D41B19"/>
<path d="M63.3166 87.3633V58.5292C59.5209 58.5292 55.8807 60.0481 53.1967 62.7518C50.5127 65.4556 49.0049 69.1226 49.0049 72.9463C49.0049 76.7699 50.5127 80.4369 53.1967 83.1407C55.8807 85.8444 59.5209 87.3633 63.3166 87.3633Z" fill="#EA1F1F"/>
<path d="M41.661 55.3481C41.6572 51.8908 40.2911 48.5763 37.8629 46.133C35.4347 43.6897 32.143 42.3173 28.7109 42.3173V68.3935C32.1385 68.3705 35.4192 66.9888 37.8429 64.5472C40.2666 62.1057 41.6383 58.8009 41.661 55.3481Z" fill="#FF9501"/>
<path d="M28.7108 68.3935V42.3173C25.2763 42.3173 21.9824 43.6917 19.5537 46.1382C17.1251 48.5847 15.7607 51.9028 15.7607 55.3627C15.7607 58.8225 17.1251 62.1407 19.5537 64.5872C21.9824 67.0337 25.2763 68.4081 28.7108 68.4081V68.3935Z" fill="#FFC410"/>
<path d="M79.3375 14.7527C79.3394 12.816 78.9623 10.898 78.228 9.10819C77.4936 7.31839 76.4162 5.69195 75.0574 4.32185C73.6987 2.95174 72.0852 1.86484 70.3092 1.12327C68.5332 0.381694 66.6295 -9.4925e-07 64.707 0V29.4908C68.5873 29.4908 72.3086 27.938 75.0523 25.1741C77.7961 22.4102 79.3375 18.6615 79.3375 14.7527Z" fill="#20A0A0"/>
<path d="M64.707 29.4908V-2.76878e-05C62.746 -0.0621783 60.7926 0.273232 58.9628 0.98629C57.133 1.69935 55.464 2.77551 54.0551 4.15089C52.6461 5.52627 51.5259 7.17281 50.7608 8.99277C49.9958 10.8127 49.6016 12.769 49.6016 14.7454C49.6016 16.7218 49.9958 18.678 50.7608 20.498C51.5259 22.3179 52.6461 23.9645 54.0551 25.3399C55.464 26.7152 57.133 27.7914 58.9628 28.5045C60.7926 29.2175 62.746 29.5529 64.707 29.4908Z" fill="#23BDBF"/>
</g>
<defs>
<clipPath id="clip0_181_4593">
<rect width="117" height="134" fill="white"/>
</clipPath>
</defs>
</svg>
