<svg width="203" height="203" viewBox="0 0 203 203" fill="none" xmlns="http://www.w3.org/2000/svg">
<path d="M198.069 101.535C198.069 48.22 154.849 4.99998 101.535 4.99998C48.22 4.99998 5 48.22 5 101.535C5 154.849 48.22 198.069 101.535 198.069C154.849 198.069 198.069 154.849 198.069 101.535Z" fill="#AE00D4" stroke="white" stroke-width="9.81707" stroke-linejoin="round"/>
<path d="M99.3839 135.552C99.3839 138.263 101.582 140.461 104.292 140.461C107.003 140.461 109.201 138.263 109.201 135.552H99.3839ZM107.763 56.6925C105.846 54.7756 102.739 54.7756 100.822 56.6925L69.5839 87.9302C67.667 89.8471 67.667 92.955 69.5839 94.8719C71.5008 96.7889 74.6087 96.7889 76.5256 94.8719L104.292 67.1051L132.059 94.8719C133.976 96.7889 137.084 96.7889 139.001 94.8719C140.918 92.955 140.918 89.8471 139.001 87.9302L107.763 56.6925ZM109.201 135.552L109.201 60.1634H99.3839L99.3839 135.552H109.201Z" fill="white"/>
</svg>
