<svg width="70" height="70" viewBox="0 0 70 70" fill="none" xmlns="http://www.w3.org/2000/svg">
<path d="M35 70C54.33 70 70 54.33 70 35C70 15.67 54.33 0 35 0C15.67 0 0 15.67 0 35C0 54.33 15.67 70 35 70Z" fill="white"/>
<path d="M51 50.5789H19C17.9391 50.5789 16.9217 50.1631 16.1716 49.4228C15.4214 48.6825 15 47.6785 15 46.6316V22.7757C15.0449 21.7588 15.486 20.7983 16.2314 20.0948C16.9767 19.3913 17.9686 18.999 19 19H51C52.0609 19 53.0783 19.4159 53.8284 20.1562C54.5786 20.8964 55 21.9005 55 22.9474V46.6316C55 47.6785 54.5786 48.6825 53.8284 49.4228C53.0783 50.1631 52.0609 50.5789 51 50.5789ZM19 26.6342V46.6316H51V26.6342L35 37.1579L19 26.6342ZM20.6 22.9474L35 32.4211L49.4 22.9474H20.6Z" fill="#9C16B9"/>
</svg>
