<?xml version="1.0" encoding="utf-8"?>
<!-- Generator: Adobe Illustrator 23.0.5, SVG Export Plug-In . SVG Version: 6.00 Build 0)  -->
<svg version="1.1" id="Слой_1" xmlns="http://www.w3.org/2000/svg" xmlns:xlink="http://www.w3.org/1999/xlink" x="0px" y="0px"
	 viewBox="0 0 500 500" style="enable-background:new 0 0 500 500;" xml:space="preserve">
<style type="text/css">
	.st0{fill:#2A3B4F;}
</style>
<path class="st0" d="M401.1,177.04c-45.46,45.56-90.9,91.13-136.38,136.67c-28.42,28.47-56.88,56.89-85.33,85.34
	c-2.19,2.19-4.37,4.37-6.9,6.9c-27.78-27.78-54.93-54.93-83.1-83.1c76.22-76.22,152.49-152.49,228.76-228.76
	C345.8,121.74,373.45,149.39,401.1,177.04z M318.22,136.23c-62.59,62.59-124.62,124.62-186.81,186.81
	c13.84,13.84,27.32,27.32,40.83,40.83c62.48-62.48,124.52-124.52,186.81-186.81C345.34,163.35,332.02,150.03,318.22,136.23z"/>
<path class="st0" d="M368.7,394.53c-2.68,1.39-5.38,2.74-8.17,3.83c-26.93,10.59-56.73,0.43-71.97-24.35
	c-14.84-24.14-9.75-55.12,12.32-74.96c19.78-17.79,51.92-18.93,73.27-2.59c23.19,17.75,30.25,48.24,17.17,74.08
	c-0.67,1.32-5.11,8.97-10.66,14.8C375.69,390.56,369.59,394.07,368.7,394.53z M318.3,323.03c-11.6,11.59-11.59,30.23,0.02,41.66
	c11.28,11.11,29.83,11.18,41.19,0.17c11.69-11.33,11.85-30.03,0.34-41.68C348.21,311.4,330.01,311.34,318.3,323.03z"/>
<path class="st0" d="M192.89,114.47c23.26,23.02,23.6,59.53,0.77,82.86c-22.97,23.47-60.43,23.72-83.58,0.56
	c-22.8-22.81-22.88-60.3-0.19-83.14C132.7,91.78,169.84,91.66,192.89,114.47z M172.69,135.86c-11.47-11.69-30.13-11.96-41.72-0.59
	c-11.46,11.24-11.5,30.42-0.1,41.83c11.31,11.32,29.54,11.45,41.04,0.31C183.86,165.81,184.21,147.6,172.69,135.86z"/>
</svg>
