<?xml version="1.0" encoding="utf-8"?>
<!-- Generator: Adobe Illustrator 23.0.5, SVG Export Plug-In . SVG Version: 6.00 Build 0)  -->
<svg version="1.1" id="Слой_1" xmlns="http://www.w3.org/2000/svg" xmlns:xlink="http://www.w3.org/1999/xlink" x="0px" y="0px"
	 viewBox="0 0 500 500" style="enable-background:new 0 0 500 500;" xml:space="preserve">
<style type="text/css">
	.st0{fill:#2A3B4F;}
</style>
<path class="st0" d="M407.07,308.57c-64.36,0.07-128.72,0.16-193.08,0.21c-40.23,0.03-80.45,0.01-120.68,0.01c-3.09,0-6.18,0-9.76,0
	c0-39.29,0-77.68,0-117.52c107.79,0,215.65,0,323.51,0C407.07,230.36,407.07,269.47,407.07,308.57z M377.32,221.1
	c-88.52,0-176.24,0-264.19,0c0,19.58,0,38.64,0,57.74c88.36,0,176.1,0,264.19,0C377.32,259.47,377.32,240.62,377.32,221.1z"/>
<path class="st0" d="M230.37,439.44c-2.88-0.92-5.74-1.87-8.49-3.07c-26.53-11.56-40.42-39.81-33.67-68.11
	c6.58-27.57,32.08-45.87,61.71-44.3c26.57,1.41,50.1,23.33,53.64,49.98c3.85,28.95-12.72,55.5-40.24,64.52
	c-1.41,0.46-9.96,2.73-18.01,2.93C238.12,441.59,231.32,439.75,230.37,439.44z M245.29,353.25c-16.4-0.01-29.57,13.18-29.45,29.47
	c0.12,15.83,13.18,29,29.01,29.25c16.28,0.25,29.61-12.86,29.71-29.23C274.66,366.18,261.83,353.26,245.29,353.25z"/>
<path class="st0" d="M304.08,117.09c0.17,32.73-25.4,58.78-58.05,59.13c-32.83,0.35-59.5-25.96-59.5-58.71
	C186.55,85.27,213,58.7,245.19,58.6C277.57,58.49,303.92,84.67,304.08,117.09z M274.68,117.94c0.16-16.38-12.85-29.76-29.08-29.92
	c-16.05-0.16-29.64,13.38-29.65,29.51c0,16,12.79,28.98,28.8,29.23C261.4,147.02,274.51,134.39,274.68,117.94z"/>
</svg>
