<svg width="80" height="80" viewBox="0 0 80 80" fill="none" xmlns="http://www.w3.org/2000/svg">
<path d="M40 78C60.9868 78 78 60.9868 78 40C78 19.0132 60.9868 2 40 2C19.0132 2 2 19.0132 2 40C2 60.9868 19.0132 78 40 78Z" fill="white" stroke="#E3E3E3" stroke-width="2.17143" stroke-linejoin="round"/>
<path d="M26.6094 39.819C25.9098 39.819 25.3427 40.3861 25.3427 41.0857C25.3427 41.7853 25.9098 42.3524 26.6094 42.3524V39.819ZM57.1812 41.9814C57.6759 41.4867 57.6759 40.6847 57.1812 40.19L49.1202 32.129C48.6256 31.6343 47.8235 31.6343 47.3289 32.129C46.8342 32.6237 46.8342 33.4257 47.3289 33.9203L54.4942 41.0857L47.3289 48.251C46.8342 48.7457 46.8342 49.5477 47.3289 50.0424C47.8235 50.537 48.6256 50.537 49.1202 50.0424L57.1812 41.9814ZM26.6094 42.3524L56.2856 42.3524V39.819L26.6094 39.819V42.3524Z" fill="#E3E3E3"/>
</svg>
