<svg width="80" height="80" viewBox="0 0 80 80" fill="none" xmlns="http://www.w3.org/2000/svg">
<path d="M40 78C19.0132 78 2 60.9868 2 40C2 19.0132 19.0132 2 40 2C60.9868 2 78 19.0132 78 40C78 60.9868 60.9868 78 40 78Z" fill="white" stroke="#E3E3E3" stroke-width="2.17143" stroke-linejoin="round"/>
<path d="M53.3906 39.8191C54.0902 39.8191 54.6573 40.3862 54.6573 41.0857C54.6573 41.7853 54.0902 42.3524 53.3906 42.3524V39.8191ZM22.8188 41.9814C22.3241 41.4867 22.3241 40.6847 22.8188 40.1901L30.8798 32.129C31.3744 31.6344 32.1765 31.6344 32.6711 32.129C33.1658 32.6237 33.1658 33.4257 32.6711 33.9204L25.5058 41.0857L32.6711 48.2511C33.1658 48.7457 33.1658 49.5477 32.6711 50.0424C32.1765 50.5371 31.3744 50.5371 30.8798 50.0424L22.8188 41.9814ZM53.3906 42.3524L23.7144 42.3524V39.8191L53.3906 39.8191V42.3524Z" fill="#E3E3E3"/>
</svg>
