<svg width="62" height="60" viewBox="0 0 62 60" fill="none" xmlns="http://www.w3.org/2000/svg">
<path d="M30.6931 60C47.6444 60 61.3861 46.5685 61.3861 30C61.3861 13.4315 47.6444 0 30.6931 0C13.7418 0 0 13.4315 0 30C0 46.5685 13.7418 60 30.6931 60Z" fill="white"/>
<path d="M8.63638 28.6243C8.9551 28.0531 9.49462 27.743 10.0802 27.5146C12.4898 26.5766 14.9061 25.655 17.3205 24.7306C25.8396 21.4694 34.3596 18.2083 42.8796 14.9501C43.0802 14.8733 43.2876 14.7994 43.4978 14.7686C44.6316 14.5987 45.3967 15.2736 45.4409 16.4717C45.4706 17.2867 45.2239 18.0595 45.0578 18.8419C43.6322 25.5542 42.197 32.2637 40.7637 38.9741C40.4335 40.5197 40.1004 42.0653 39.7673 43.6099C39.6914 43.9632 39.5781 44.303 39.3967 44.6179C38.9887 45.3264 38.3589 45.5894 37.566 45.3821C37.1676 45.2784 36.8047 45.1046 36.4706 44.8598C33.8316 42.9235 31.1858 40.9949 28.5545 39.049C28.2905 38.8541 28.1513 38.8886 27.9353 39.0979C26.5989 40.391 25.2482 41.6688 23.9071 42.9571C23.5759 43.2749 23.1948 43.4765 22.7407 43.5456C22.5362 43.5763 22.4373 43.5466 22.4565 43.2941C22.6025 41.3328 22.734 39.3706 22.8713 37.4093C22.9221 36.6912 22.9855 35.975 23.0268 35.257C23.0393 35.0467 23.1228 34.9114 23.2764 34.7741C28.3759 30.2006 33.4706 25.6224 38.5663 21.0451C38.6469 20.9731 38.7276 20.9021 38.8034 20.8243C38.9215 20.7024 39.053 20.569 38.9628 20.3856C38.8735 20.2032 38.6834 20.2224 38.5173 20.233C38.1967 20.2531 37.9221 20.401 37.6562 20.568C31.3375 24.5222 25.0159 28.4746 18.7029 32.4374C18.4034 32.6256 18.1586 32.6669 17.8149 32.5574C15.1903 31.7242 12.5589 30.9139 9.9295 30.097C9.4159 29.9376 8.94934 29.711 8.64214 29.255C8.63254 29.2406 8.55862 29.0813 8.55766 28.9354C8.55574 28.7818 8.62678 28.6416 8.63638 28.6243Z" fill="#AE00D4"/>
</svg>
