<svg width="70" height="70" viewBox="0 0 70 70" fill="none" xmlns="http://www.w3.org/2000/svg">
<path d="M35 70C54.33 70 70 54.33 70 35C70 15.67 54.33 0 35 0C15.67 0 0 15.67 0 35C0 54.33 15.67 70 35 70Z" fill="white"/>
<path d="M31.9698 24.6014C31.9698 24.6017 31.9694 24.6019 31.9692 24.6016L26.0496 17.6023C25.3671 16.7957 24.1159 16.7992 23.3231 17.6131L18.4546 22.609C17.0057 24.095 16.5909 26.3017 17.4292 28.071C22.437 38.6919 30.7992 47.2696 41.1608 52.4141C42.8863 53.2728 45.0388 52.8479 46.4877 51.3619L51.4017 46.3194C52.198 45.5038 52.1997 44.2149 51.4052 43.5158L44.5453 37.4838C43.8278 36.8528 42.713 36.9352 41.9938 37.6738L39.6068 40.1224C39.4846 40.2536 39.3237 40.3401 39.1489 40.3686C38.9741 40.3971 38.795 40.366 38.639 40.2802C34.7373 37.9787 31.5008 34.6591 29.2591 30.6594C29.1751 30.4995 29.1447 30.3157 29.1726 30.1363C29.2004 29.9569 29.2849 29.7918 29.4131 29.6663L31.7931 27.2267C32.5138 26.4848 32.5928 25.338 31.9704 24.6012C31.9702 24.601 31.9698 24.6011 31.9698 24.6014Z" fill="white" stroke="#AE00D4" stroke-width="3.5" stroke-linecap="round" stroke-linejoin="round"/>
</svg>
