<?xml version="1.0" encoding="utf-8"?>
<!-- Generator: Adobe Illustrator 23.0.5, SVG Export Plug-In . SVG Version: 6.00 Build 0)  -->
<svg version="1.1" id="Слой_1" xmlns="http://www.w3.org/2000/svg" xmlns:xlink="http://www.w3.org/1999/xlink" x="0px" y="0px"
	 viewBox="0 0 500 500" style="enable-background:new 0 0 500 500;" xml:space="preserve">
<style type="text/css">
	.st0{fill:#2A3B4F;}
</style>
<path class="st0" d="M248.99,155.68c25.72-25.75,49.87-49.92,73.11-73.19c31.99,31.88,63.25,63.04,94.6,94.27
	c-23.19,23.15-47.39,47.31-72.29,72.17c25.24,25.12,49.62,49.38,73.5,73.14c-31.81,31.79-62.9,62.87-93.99,93.94
	c-23.43-23.51-47.55-47.71-71.68-71.92c-25.36,25.51-49.59,49.89-73.3,73.74c-32.76-32.81-63.96-64.07-95.33-95.49
	c23.45-23.4,47.67-47.57,72.69-72.55c-25.09-25.71-49.5-50.72-74.2-76.02c31.57-30.87,62.62-61.24,93.66-91.59
	C200.25,106.75,224.5,131.1,248.99,155.68z M176.45,122.16c-17.57,18.5-34.14,35.94-53.31,56.11c24.47,22.63,49.8,46.05,76.82,71.03
	c-26.47,26-50.99,50.08-74.09,72.77c17.62,17.67,34.79,34.9,52.57,52.73c23.47-23.54,47.62-47.76,73.24-73.45
	c24.5,24.83,48.68,49.33,71.59,72.55c17.47-17.46,34.69-34.67,52.16-52.13c-23.46-23.43-47.67-47.61-72.99-72.9
	c24.91-24.81,49.31-49.11,72.89-72.6c-17.42-17.31-34.68-34.48-52.03-51.72c-23.52,23.54-47.7,47.73-72.29,72.34
	C225.93,171.76,201.59,147.36,176.45,122.16z"/>
</svg>
