<svg width="65" height="65" viewBox="0 0 65 65" fill="none" xmlns="http://www.w3.org/2000/svg">
<path d="M46.3287 16.01H44.3081V12H40.2671V16.01H24.1027V12H20.0616V16.01H18.0411C16.9693 16.01 15.9415 16.4325 15.1836 17.1845C14.4258 17.9365 14 18.9565 14 20.02V48.09C14 49.1535 14.4258 50.1735 15.1836 50.9255C15.9415 51.6775 16.9693 52.1 18.0411 52.1H46.3287C48.5513 52.1 50.3698 50.2955 50.3698 48.09V20.02C50.3698 17.8145 48.5513 16.01 46.3287 16.01ZM32.1849 22.025C35.539 22.025 38.2465 24.7117 38.2465 28.04C38.2465 31.3683 35.539 34.055 32.1849 34.055C28.8308 34.055 26.1233 31.3683 26.1233 28.04C26.1233 24.7117 28.8308 22.025 32.1849 22.025ZM44.3081 46.085H20.0616V44.08C20.0616 40.07 28.1438 37.8645 32.1849 37.8645C36.226 37.8645 44.3081 40.07 44.3081 44.08V46.085Z" fill="white"/>
</svg>
