<svg width="86" height="81" viewBox="0 0 86 81" fill="none" xmlns="http://www.w3.org/2000/svg">
<g clip-path="url(#clip0_1317_1664)">
<path d="M41.2578 81C38.3965 81.0111 35.5903 80.2168 33.1625 78.7085L32.6092 78.3169H32.318C31.7413 78.3605 31.1621 78.3605 30.5854 78.3169C22.8978 77.9398 17.0302 71.3989 14.8753 68.6143C13.061 66.1055 11.5188 63.4122 10.2744 60.5796L10.1871 60.4056C8.82462 57.6132 7.72784 54.6999 6.91109 51.7037C5.90646 47.9329 3.18376 35.0396 10.1288 26.1347C11.0539 24.9674 12.082 23.885 13.201 22.9005C21.5729 15.4894 36.0599 12.6612 45.7859 20.754C47.2831 22.034 48.6135 23.4957 49.7462 25.1049C53.3535 24.8656 56.9612 25.5653 60.2147 27.1354H60.3167C63.4825 28.7595 66.2473 31.0628 68.4119 33.8793C70.5639 36.6962 72.0563 39.9568 72.7799 43.4224C73.2517 45.6819 73.3842 47.9986 73.173 50.2969C72.5178 57.1859 68.8051 62.262 65.3835 66.2503C61.5126 70.7085 56.969 74.5397 51.9156 77.6063C48.7424 79.6891 45.0555 80.8631 41.2578 81ZM35.1427 68.1647L37.1082 70.0211C37.4289 70.3268 37.7802 70.599 38.1566 70.8333C41.2724 72.7767 45.1307 71.0073 47.1545 69.7891C51.3963 67.2425 55.2051 64.0409 58.4384 60.304C62.0784 56.0981 63.6945 52.9655 64.0149 49.4992C64.1465 48.1278 64.0729 46.7446 63.7965 45.3948C63.3348 43.2864 62.4133 41.3049 61.0974 39.5906C59.7815 37.8763 58.1033 36.4711 56.1817 35.4747C53.8019 34.341 51.104 34.0544 48.5377 34.6625L44.9706 35.5182L43.2962 32.255C42.4521 30.5919 41.284 29.1128 39.8601 27.904C34.0361 23.1035 24.776 25.1919 19.4762 29.891C18.747 30.4966 18.0789 31.1717 17.4816 31.9069C14.06 36.2578 14.424 43.785 15.9091 49.3107C16.5761 51.7373 17.4681 54.097 18.5735 56.3592L18.6755 56.5767C19.6491 58.8073 20.8441 60.9353 22.2426 62.9291C24.4557 65.8297 27.9501 68.8899 31.1096 69.0494H31.7065C31.9825 69.0202 32.2553 68.9669 32.5219 68.8899L35.1427 68.1647Z" fill="#D41B19"/>
<path d="M66.1115 8.93392C72.2779 5.90307 79.1698 4.64256 86.0148 5.29364C82.4692 11.1005 77.5119 15.9238 71.6006 19.3182C65.6414 22.3581 58.9795 23.7694 52.2942 23.4081C55.4299 17.3765 60.2218 12.3568 66.1115 8.93392Z" fill="#84B102"/>
<path d="M43.2379 12.2842C41.9279 8.31522 41.7564 4.06076 42.7429 0C45.9684 2.62651 48.473 6.02452 50.0228 9.87663C51.3473 13.7236 51.6334 17.8498 50.8527 21.8417C47.4511 19.4447 44.8089 16.1284 43.2379 12.2842Z" fill="#639A00"/>
</g>
<defs>
<clipPath id="clip0_1317_1664">
<rect width="86" height="81" fill="white"/>
</clipPath>
</defs>
</svg>
