<svg width="65" height="65" viewBox="0 0 65 65" fill="none" xmlns="http://www.w3.org/2000/svg">
<path d="M16.8781 27.5124H44.0248V31.3905H47.9029V19.7562C47.9029 17.6232 46.1577 15.8781 44.0248 15.8781H42.0857V12H38.2076V15.8781H22.6952V12H18.8171V15.8781H16.8781C14.7258 15.8781 13.0194 17.6232 13.0194 19.7562L13 46.9029C13 47.9314 13.4086 48.9178 14.1359 49.6451C14.8632 50.3724 15.8496 50.781 16.8781 50.781H30.4514V46.9029H16.8781V27.5124ZM16.8781 19.7562H44.0248V23.6343H16.8781V19.7562ZM51.4707 39.6896L50.094 41.0663L45.9832 36.9555L47.3599 35.5788C47.5393 35.3991 47.7524 35.2565 47.987 35.1591C48.2215 35.0618 48.473 35.0118 48.7269 35.0118C48.9809 35.0118 49.2324 35.0618 49.4669 35.1591C49.7015 35.2565 49.9146 35.3991 50.094 35.5788L51.4707 36.9555C52.2269 37.7118 52.2269 38.9334 51.4707 39.6896ZM44.6065 38.3323L48.7173 42.4431L38.4403 52.72H34.3295V48.6092L44.6065 38.3323Z" fill="white"/>
</svg>
