<svg width="45" height="47" viewBox="0 0 45 47" fill="none" xmlns="http://www.w3.org/2000/svg">
<path d="M4.47038 17.8815H35.7631V22.3519H40.2335V8.94077C40.2335 6.48206 38.2218 4.47038 35.7631 4.47038H33.5279V0H29.0575V4.47038H11.176V0H6.70558V4.47038H4.47038C1.98932 4.47038 0.0223519 6.48206 0.0223519 8.94077L0 40.2335C0 41.4191 0.470985 42.5561 1.30934 43.3945C2.1477 44.2329 3.28476 44.7038 4.47038 44.7038H20.1167V40.2335H4.47038V17.8815ZM4.47038 8.94077H35.7631V13.4112H4.47038V8.94077ZM44.3462 31.9185L42.7592 33.5055L38.0206 28.7669L39.6076 27.1799C39.8144 26.9727 40.06 26.8083 40.3304 26.6962C40.6008 26.584 40.8907 26.5263 41.1834 26.5263C41.4761 26.5263 41.766 26.584 42.0364 26.6962C42.3068 26.8083 42.5524 26.9727 42.7592 27.1799L44.3462 28.7669C45.2179 29.6386 45.2179 31.0468 44.3462 31.9185ZM36.4336 30.3539L41.1722 35.0925L29.3257 46.939H24.5871V42.2004L36.4336 30.3539Z" fill="white"/>
</svg>
