<svg width="65" height="65" viewBox="0 0 65 65" fill="none" xmlns="http://www.w3.org/2000/svg">
<path d="M46.2222 16.7632H44.3333V13H40.5556V16.7632H25.4444V13H21.6667V16.7632H19.7778C17.7 16.7632 16 18.4566 16 20.5264V46.8687C16 48.9385 17.7 50.6319 19.7778 50.6319H25.4444L21.6667 46.8687H19.7778V28.0528H46.2222V46.8687H44.3333L40.5556 50.6319H46.2222C48.3 50.6319 50 48.9385 50 46.8687V20.5264C50 18.4566 48.3 16.7632 46.2222 16.7632ZM19.7778 24.2896V20.5264H46.2222V24.2896H19.7778ZM34.8889 44.9871V33.6976H31.1111V44.9871H25.4444L33 52.5135L40.5556 44.9871H34.8889Z" fill="white"/>
</svg>
