<svg width="65" height="65" viewBox="0 0 65 65" fill="none" xmlns="http://www.w3.org/2000/svg">
<path d="M28.9524 21.4762H35.4286V18.2381H28.9524V21.4762ZM19.2381 45.7619C18.3476 45.7619 17.585 45.4446 16.9504 44.8099C16.3157 44.1752 15.9989 43.4132 16 42.5238V24.7143C16 23.8238 16.3173 23.0612 16.952 22.4266C17.5867 21.7919 18.3487 21.4751 19.2381 21.4762H25.7143V18.2381C25.7143 17.3476 26.0316 16.585 26.6663 15.9504C27.301 15.3157 28.063 14.9989 28.9524 15H35.4286C36.319 15 37.0816 15.3173 37.7163 15.952C38.351 16.5867 38.6677 17.3487 38.6667 18.2381V21.4762H45.1429C46.0333 21.4762 46.7959 21.7935 47.4306 22.4282C48.0652 23.0629 48.382 23.8249 48.381 24.7143V31.6357C47.8952 31.2849 47.3825 30.9811 46.8429 30.7242C46.3032 30.4673 45.7365 30.245 45.1429 30.0571V24.7143H19.2381V42.5238H30.6929C30.7738 43.0905 30.8952 43.6436 31.0571 44.1833C31.219 44.723 31.4214 45.2492 31.6643 45.7619H19.2381ZM41.9048 45.7619L46.7619 40.9048L45.6286 39.7714L42.7143 42.6857V36.0476H41.0952V42.6857L38.181 39.7714L37.0476 40.9048L41.9048 45.7619ZM41.9048 49C39.6651 49 37.7557 48.2104 36.1766 46.6313C34.5975 45.0522 33.8084 43.1434 33.8095 40.9048C33.8095 38.6651 34.5991 36.7557 36.1782 35.1766C37.7573 33.5975 39.6662 32.8084 41.9048 32.8095C44.1444 32.8095 46.0538 33.5991 47.633 35.1782C49.2121 36.7573 50.0011 38.6662 50 40.9048C50 43.1444 49.2104 45.0538 47.6313 46.633C46.0522 48.2121 44.1434 49.0011 41.9048 49Z" fill="white"/>
</svg>
