<svg width="65" height="65" viewBox="0 0 65 65" fill="none" xmlns="http://www.w3.org/2000/svg">
<path d="M18.7273 11V14.8182H16.8182C14.6991 14.8182 13 16.5173 13 18.6364V45.3636C13 46.3763 13.4023 47.3474 14.1183 48.0635C14.8344 48.7795 15.8055 49.1818 16.8182 49.1818H28.4636C30.8691 51.5491 34.1718 53 37.8182 53C45.2064 53 51.1818 47.0245 51.1818 39.6364C51.1818 35.99 49.7309 32.6873 47.3636 30.2818V18.6364C47.3636 17.6237 46.9614 16.6525 46.2453 15.9365C45.5293 15.2205 44.5581 14.8182 43.5455 14.8182H41.6364V11H37.8182V14.8182H22.5455V11M16.8182 18.6364H43.5455V22.4545H16.8182M16.8182 26.2727H43.5455V27.5518C41.8082 26.7309 39.8609 26.2727 37.8182 26.2727C30.43 26.2727 24.4545 32.2482 24.4545 39.6364C24.4545 41.6791 24.9127 43.6264 25.7336 45.3636H16.8182M37.8182 30.3773C42.9345 30.3773 47.0773 34.52 47.0773 39.6364C47.0773 44.7527 42.9345 48.8955 37.8182 48.8955C32.7018 48.8955 28.5591 44.7527 28.5591 39.6364C28.5591 34.52 32.7018 30.3773 37.8182 30.3773ZM35.9091 33.9091V40.9536L41.9991 44.4664L43.4309 41.9845L38.7727 39.2927V33.9091H35.9091Z" fill="white"/>
</svg>
