<svg width="45" height="50" viewBox="0 0 45 50" fill="none" xmlns="http://www.w3.org/2000/svg">
<path d="M6.75 0V4.5H4.5C2.0025 4.5 0 6.5025 0 9V40.5C0 41.6935 0.474106 42.8381 1.31802 43.682C2.16193 44.5259 3.30653 45 4.5 45H18.225C21.06 47.79 24.9525 49.5 29.25 49.5C37.9575 49.5 45 42.4575 45 33.75C45 29.4525 43.29 25.56 40.5 22.725V9C40.5 7.80653 40.0259 6.66193 39.182 5.81802C38.3381 4.97411 37.1935 4.5 36 4.5H33.75V0H29.25V4.5H11.25V0M4.5 9H36V13.5H4.5M4.5 18H36V19.5075C33.9525 18.54 31.6575 18 29.25 18C20.5425 18 13.5 25.0425 13.5 33.75C13.5 36.1575 14.04 38.4525 15.0075 40.5H4.5M29.25 22.8375C35.28 22.8375 40.1625 27.72 40.1625 33.75C40.1625 39.78 35.28 44.6625 29.25 44.6625C23.22 44.6625 18.3375 39.78 18.3375 33.75C18.3375 27.72 23.22 22.8375 29.25 22.8375ZM27 27V35.3025L34.1775 39.4425L35.865 36.5175L30.375 33.345V27H27Z" fill="white"/>
</svg>
