<svg width="2442" height="322" viewBox="0 0 2442 322" fill="none" xmlns="http://www.w3.org/2000/svg">
<path d="M0.000488281 294.974V42.8932C0.000488281 42.8932 58.6201 -12.8531 262.576 2.75849C466.532 18.3701 548.675 212.757 947.943 230.898C1347.21 249.038 1251.22 185.43 1725.5 159.076C2199.77 132.722 2441.38 216 2441.38 216V294.974H0.000488281Z" fill="#54D0B1"/>
<path d="M0.000488281 321.333V97.1422C0.000488281 97.1422 58.6201 47.5636 262.576 61.448C466.532 75.3323 548.675 248.212 947.943 264.346C1347.21 280.48 1251.22 223.909 1725.5 200.471C2199.77 177.033 2441.38 251.5 2441.38 251.5V321.333H0.000488281Z" fill="white"/>
</svg>
