<svg width="2442" height="208" viewBox="0 0 2442 208" fill="none" xmlns="http://www.w3.org/2000/svg">
<path d="M2441.4 -1.52588e-05V200.034C2441.4 200.034 2456.69 215.953 2242.71 200.035C2028.73 184.116 1898.03 83.833 1479.14 65.3356C1060.25 46.8383 1160.95 111.696 663.37 138.568C165.789 165.44 0.255859 95.6998 0.255859 95.6998V0L2441.4 -1.52588e-05Z" fill="#D589CC"/>
<path d="M2441.76 0V174.817C2441.76 174.817 2457.06 188.729 2243.03 174.817C2028.99 160.905 1898.25 73.2645 1479.26 57.0991C1060.26 40.9336 1160.99 97.6153 663.283 121.1C165.575 144.584 0 83.6354 0 83.6354V1.52588e-05L2441.76 0Z" fill="white"/>
</svg>
